<?xml version="1.0" encoding="UTF-8" standalone="no"?>
<!DOCTYPE svg PUBLIC "-//W3C//DTD SVG 1.1//EN"
 "http://www.w3.org/Graphics/SVG/1.1/DTD/svg11.dtd">
<!-- Generated by graphviz version 5.0.0 (20220707.2145)
 -->
<!-- Title: G Pages: 1 -->
<svg width="192pt" height="188pt"
 viewBox="0.00 0.00 192.36 188.00" xmlns="http://www.w3.org/2000/svg" xmlns:xlink="http://www.w3.org/1999/xlink">
<g id="graph0" class="graph" transform="scale(1 1) rotate(0) translate(4 184)">
<title>G</title>
<polygon fill="white" stroke="transparent" points="-4,4 -4,-184 188.36,-184 188.36,4 -4,4"/>
<!-- vendor&#45;available -->
<g id="node1" class="node">
<title>vendor&#45;available</title>
<ellipse fill="none" stroke="black" cx="27" cy="-162" rx="27" ry="18"/>
<text text-anchor="middle" x="27" y="-157.8" font-family="Times,serif" font-size="14.00">V1</text>
</g>
<!-- take&#45;home -->
<g id="node5" class="node">
<title>take&#45;home</title>
<polygon fill="none" stroke="black" points="114.58,-108 39.42,-108 39.42,-72 114.58,-72 114.58,-108"/>
<text text-anchor="middle" x="77" y="-85.8" font-family="Times,serif" font-size="14.00">take&#45;home</text>
</g>
<!-- vendor&#45;available&#45;&gt;take&#45;home -->
<g id="edge1" class="edge">
<title>vendor&#45;available&#45;&gt;take&#45;home</title>
<path fill="none" stroke="black" d="M38.1,-145.46C44.15,-136.99 51.8,-126.29 58.7,-116.61"/>
<polygon fill="black" stroke="black" points="61.56,-118.63 64.53,-108.46 55.87,-114.56 61.56,-118.63"/>
</g>
<!-- client&#45;with&#45;item -->
<g id="node2" class="node">
<title>client&#45;with&#45;item</title>
<ellipse fill="none" stroke="black" cx="128" cy="-162" rx="56.22" ry="18"/>
<text text-anchor="middle" x="128" y="-157.8" font-family="Times,serif" font-size="14.00"> &#160;Alice shirt</text>
</g>
<!-- client&#45;with&#45;item&#45;&gt;take&#45;home -->
<g id="edge3" class="edge">
<title>client&#45;with&#45;item&#45;&gt;take&#45;home</title>
<path fill="none" stroke="black" d="M115.91,-144.41C109.87,-136.12 102.42,-125.89 95.66,-116.62"/>
<polygon fill="black" stroke="black" points="98.43,-114.47 89.71,-108.45 92.77,-118.59 98.43,-114.47"/>
</g>
<!-- vendor&#45;with&#45;item -->
<g id="node3" class="node">
<title>vendor&#45;with&#45;item</title>
<ellipse fill="none" stroke="black" cx="41" cy="-18" rx="27" ry="18"/>
<text text-anchor="middle" x="41" y="-13.8" font-family="Times,serif" font-size="14.00"> </text>
</g>
<!-- client&#45;with&#45;money -->
<g id="node4" class="node">
<title>client&#45;with&#45;money</title>
<ellipse fill="none" stroke="black" cx="113" cy="-18" rx="27" ry="18"/>
<text text-anchor="middle" x="113" y="-13.8" font-family="Times,serif" font-size="14.00"> </text>
</g>
<!-- take&#45;home&#45;&gt;vendor&#45;with&#45;item -->
<g id="edge4" class="edge">
<title>take&#45;home&#45;&gt;vendor&#45;with&#45;item</title>
<path fill="none" stroke="black" d="M68.1,-71.7C63.84,-63.4 58.65,-53.31 53.95,-44.19"/>
<polygon fill="black" stroke="black" points="56.99,-42.44 49.3,-35.14 50.76,-45.64 56.99,-42.44"/>
</g>
<!-- take&#45;home&#45;&gt;client&#45;with&#45;money -->
<g id="edge2" class="edge">
<title>take&#45;home&#45;&gt;client&#45;with&#45;money</title>
<path fill="none" stroke="black" d="M85.9,-71.7C90.16,-63.4 95.35,-53.31 100.05,-44.19"/>
<polygon fill="black" stroke="black" points="103.24,-45.64 104.7,-35.14 97.01,-42.44 103.24,-45.64"/>
</g>
</g>
</svg>
