<?xml version="1.0" encoding="UTF-8" standalone="no"?>
<!DOCTYPE svg PUBLIC "-//W3C//DTD SVG 1.1//EN"
 "http://www.w3.org/Graphics/SVG/1.1/DTD/svg11.dtd">
<!-- Generated by graphviz version 5.0.0 (20220707.2145)
 -->
<!-- Title: G Pages: 1 -->
<svg width="398pt" height="332pt"
 viewBox="0.00 0.00 398.27 332.00" xmlns="http://www.w3.org/2000/svg" xmlns:xlink="http://www.w3.org/1999/xlink">
<g id="graph0" class="graph" transform="scale(1 1) rotate(0) translate(4 328)">
<title>G</title>
<polygon fill="white" stroke="transparent" points="-4,4 -4,-328 394.27,-328 394.27,4 -4,4"/>
<!-- vendor&#45;available&#45;1 -->
<g id="node1" class="node">
<title>vendor&#45;available&#45;1</title>
<ellipse fill="none" stroke="black" cx="95.81" cy="-306" rx="27" ry="18"/>
<text text-anchor="middle" x="95.81" y="-301.8" font-family="Times,serif" font-size="14.00">V1</text>
</g>
<!-- take&#45;home -->
<g id="node8" class="node">
<title>take&#45;home</title>
<polygon fill="none" stroke="black" points="183.39,-252 108.23,-252 108.23,-216 183.39,-216 183.39,-252"/>
<text text-anchor="middle" x="145.81" y="-229.8" font-family="Times,serif" font-size="14.00">take&#45;home</text>
</g>
<!-- vendor&#45;available&#45;1&#45;&gt;take&#45;home -->
<g id="edge1" class="edge">
<title>vendor&#45;available&#45;1&#45;&gt;take&#45;home</title>
<path fill="none" stroke="black" d="M106.91,-289.46C112.96,-280.99 120.61,-270.29 127.51,-260.61"/>
<polygon fill="black" stroke="black" points="130.37,-262.63 133.34,-252.46 124.68,-258.56 130.37,-262.63"/>
</g>
<!-- client&#45;with&#45;item&#45;2 -->
<g id="node2" class="node">
<title>client&#45;with&#45;item&#45;2</title>
<ellipse fill="none" stroke="black" cx="196.81" cy="-306" rx="56.22" ry="18"/>
<text text-anchor="middle" x="196.81" y="-301.8" font-family="Times,serif" font-size="14.00"> &#160;Alice shirt</text>
</g>
<!-- client&#45;with&#45;item&#45;2&#45;&gt;take&#45;home -->
<g id="edge3" class="edge">
<title>client&#45;with&#45;item&#45;2&#45;&gt;take&#45;home</title>
<path fill="none" stroke="black" d="M184.72,-288.41C178.68,-280.12 171.23,-269.89 164.47,-260.62"/>
<polygon fill="black" stroke="black" points="167.24,-258.47 158.52,-252.45 161.58,-262.59 167.24,-258.47"/>
</g>
<!-- vendor&#45;with&#45;item&#45;3 -->
<g id="node3" class="node">
<title>vendor&#45;with&#45;item&#45;3</title>
<ellipse fill="none" stroke="black" cx="77.81" cy="-162" rx="47" ry="18"/>
<text text-anchor="middle" x="77.81" y="-157.8" font-family="Times,serif" font-size="14.00"> &#160;V1 shirt</text>
</g>
<!-- packs&#45;shirt -->
<g id="node9" class="node">
<title>packs&#45;shirt</title>
<polygon fill="none" stroke="black" points="116.74,-108 38.88,-108 38.88,-72 116.74,-72 116.74,-108"/>
<text text-anchor="middle" x="77.81" y="-85.8" font-family="Times,serif" font-size="14.00">packs&#45;shirt</text>
</g>
<!-- vendor&#45;with&#45;item&#45;3&#45;&gt;packs&#45;shirt -->
<g id="edge5" class="edge">
<title>vendor&#45;with&#45;item&#45;3&#45;&gt;packs&#45;shirt</title>
<path fill="none" stroke="black" d="M77.81,-143.7C77.81,-135.98 77.81,-126.71 77.81,-118.11"/>
<polygon fill="black" stroke="black" points="81.31,-118.1 77.81,-108.1 74.31,-118.1 81.31,-118.1"/>
</g>
<!-- client&#45;with&#45;50&#45;EUR&#45;4 -->
<g id="node4" class="node">
<title>client&#45;with&#45;50&#45;EUR&#45;4</title>
<ellipse fill="none" stroke="black" cx="214.81" cy="-162" rx="71.26" ry="18"/>
<text text-anchor="middle" x="214.81" y="-157.8" font-family="Times,serif" font-size="14.00"> &#160;Alice 50&#45;EUR</text>
</g>
<!-- pays&#45;take&#45;home -->
<g id="node10" class="node">
<title>pays&#45;take&#45;home</title>
<polygon fill="none" stroke="black" points="267.72,-108 161.9,-108 161.9,-72 267.72,-72 267.72,-108"/>
<text text-anchor="middle" x="214.81" y="-85.8" font-family="Times,serif" font-size="14.00">pays&#45;take&#45;home</text>
</g>
<!-- client&#45;with&#45;50&#45;EUR&#45;4&#45;&gt;pays&#45;take&#45;home -->
<g id="edge7" class="edge">
<title>client&#45;with&#45;50&#45;EUR&#45;4&#45;&gt;pays&#45;take&#45;home</title>
<path fill="none" stroke="black" d="M214.81,-143.7C214.81,-135.98 214.81,-126.71 214.81,-118.11"/>
<polygon fill="black" stroke="black" points="218.31,-118.1 214.81,-108.1 211.31,-118.1 218.31,-118.1"/>
</g>
<!-- cashier&#45;available&#45;5 -->
<g id="node5" class="node">
<title>cashier&#45;available&#45;5</title>
<ellipse fill="none" stroke="black" cx="214.81" cy="-18" rx="27" ry="18"/>
<text text-anchor="middle" x="214.81" y="-13.8" font-family="Times,serif" font-size="14.00">C1</text>
</g>
<!-- cashier&#45;available&#45;5&#45;&gt;pays&#45;take&#45;home -->
<g id="edge9" class="edge">
<title>cashier&#45;available&#45;5&#45;&gt;pays&#45;take&#45;home</title>
<path fill="none" stroke="black" d="M220.65,-35.62C221.5,-43.36 221.75,-52.76 221.42,-61.51"/>
<polygon fill="black" stroke="black" points="217.91,-61.48 220.73,-71.7 224.9,-61.96 217.91,-61.48"/>
</g>
<!-- client&#45;with&#45;receipt&#45;6 -->
<g id="node6" class="node">
<title>client&#45;with&#45;receipt&#45;6</title>
<ellipse fill="none" stroke="black" cx="324.81" cy="-18" rx="65.42" ry="18"/>
<text text-anchor="middle" x="324.81" y="-13.8" font-family="Times,serif" font-size="14.00"> &#160;Alice receipt</text>
</g>
<!-- vendor&#45;with&#45;packed&#45;item&#45;7 -->
<g id="node7" class="node">
<title>vendor&#45;with&#45;packed&#45;item&#45;7</title>
<ellipse fill="none" stroke="black" cx="77.81" cy="-18" rx="77.62" ry="18"/>
<text text-anchor="middle" x="77.81" y="-13.8" font-family="Times,serif" font-size="14.00"> &#160;V1 packed&#45;shirt</text>
</g>
<!-- take&#45;home&#45;&gt;vendor&#45;with&#45;item&#45;3 -->
<g id="edge4" class="edge">
<title>take&#45;home&#45;&gt;vendor&#45;with&#45;item&#45;3</title>
<path fill="none" stroke="black" d="M129,-215.7C120.44,-206.88 109.9,-196.03 100.61,-186.47"/>
<polygon fill="black" stroke="black" points="102.97,-183.88 93.49,-179.14 97.95,-188.76 102.97,-183.88"/>
</g>
<!-- take&#45;home&#45;&gt;client&#45;with&#45;50&#45;EUR&#45;4 -->
<g id="edge2" class="edge">
<title>take&#45;home&#45;&gt;client&#45;with&#45;50&#45;EUR&#45;4</title>
<path fill="none" stroke="black" d="M162.87,-215.7C171.43,-207.01 181.94,-196.34 191.26,-186.89"/>
<polygon fill="black" stroke="black" points="193.9,-189.2 198.43,-179.62 188.91,-184.29 193.9,-189.2"/>
</g>
<!-- packs&#45;shirt&#45;&gt;vendor&#45;with&#45;packed&#45;item&#45;7 -->
<g id="edge6" class="edge">
<title>packs&#45;shirt&#45;&gt;vendor&#45;with&#45;packed&#45;item&#45;7</title>
<path fill="none" stroke="black" d="M77.81,-71.7C77.81,-63.98 77.81,-54.71 77.81,-46.11"/>
<polygon fill="black" stroke="black" points="81.31,-46.1 77.81,-36.1 74.31,-46.1 81.31,-46.1"/>
</g>
<!-- pays&#45;take&#45;home&#45;&gt;cashier&#45;available&#45;5 -->
<g id="edge8" class="edge">
<title>pays&#45;take&#45;home&#45;&gt;cashier&#45;available&#45;5</title>
<path fill="none" stroke="black" d="M208.89,-71.7C208.09,-63.87 207.87,-54.44 208.23,-45.73"/>
<polygon fill="black" stroke="black" points="211.73,-45.85 208.97,-35.62 204.75,-45.34 211.73,-45.85"/>
</g>
<!-- pays&#45;take&#45;home&#45;&gt;client&#45;with&#45;receipt&#45;6 -->
<g id="edge10" class="edge">
<title>pays&#45;take&#45;home&#45;&gt;client&#45;with&#45;receipt&#45;6</title>
<path fill="none" stroke="black" d="M241.72,-71.88C256.75,-62.31 275.6,-50.32 291.54,-40.17"/>
<polygon fill="black" stroke="black" points="293.5,-43.07 300.06,-34.75 289.74,-37.17 293.5,-43.07"/>
</g>
</g>
</svg>
