<?xml version="1.0" encoding="UTF-8" standalone="no"?>
<!DOCTYPE svg PUBLIC "-//W3C//DTD SVG 1.1//EN"
 "http://www.w3.org/Graphics/SVG/1.1/DTD/svg11.dtd">
<!-- Generated by graphviz version 5.0.0 (20220707.2145)
 -->
<!-- Title: G Pages: 1 -->
<svg width="804pt" height="116pt"
 viewBox="0.00 0.00 804.29 116.00" xmlns="http://www.w3.org/2000/svg" xmlns:xlink="http://www.w3.org/1999/xlink">
<g id="graph0" class="graph" transform="scale(1 1) rotate(0) translate(4 112)">
<title>G</title>
<polygon fill="white" stroke="transparent" points="-4,4 -4,-112 800.29,-112 800.29,4 -4,4"/>
<!-- V1 -->
<g id="node1" class="node">
<title>V1</title>
<ellipse fill="none" stroke="black" cx="27" cy="-90" rx="27" ry="18"/>
<text text-anchor="middle" x="27" y="-85.8" font-family="Times,serif" font-size="14.00">V1</text>
</g>
<!-- Alice shirt -->
<g id="node2" class="node">
<title>Alice shirt</title>
<ellipse fill="none" stroke="black" cx="124" cy="-90" rx="51.56" ry="18"/>
<text text-anchor="middle" x="124" y="-85.8" font-family="Times,serif" font-size="14.00">Alice shirt</text>
</g>
<!-- V1 shirt -->
<g id="node3" class="node">
<title>V1 shirt</title>
<ellipse fill="none" stroke="black" cx="236" cy="-90" rx="42.34" ry="18"/>
<text text-anchor="middle" x="236" y="-85.8" font-family="Times,serif" font-size="14.00">V1 shirt</text>
</g>
<!-- Alice 50&#45;EUR -->
<g id="node4" class="node">
<title>Alice 50&#45;EUR</title>
<ellipse fill="none" stroke="black" cx="363" cy="-90" rx="66.6" ry="18"/>
<text text-anchor="middle" x="363" y="-85.8" font-family="Times,serif" font-size="14.00">Alice 50&#45;EUR</text>
</g>
<!-- take&#45;home -->
<g id="node5" class="node">
<title>take&#45;home</title>
<polygon fill="none" stroke="black" points="660.58,-36 585.42,-36 585.42,0 660.58,0 660.58,-36"/>
<text text-anchor="middle" x="623" y="-13.8" font-family="Times,serif" font-size="14.00">take&#45;home</text>
</g>
<!-- take&#45;home&#45;&gt;take&#45;home -->
<g id="edge2" class="edge">
<title>take&#45;home&#45;&gt;take&#45;home</title>
<path fill="none" stroke="black" d="M660.64,-24.7C670.81,-24.35 678.54,-22.11 678.54,-18 678.54,-15.43 675.52,-13.59 670.77,-12.49"/>
<polygon fill="black" stroke="black" points="670.98,-8.99 660.64,-11.3 670.16,-15.94 670.98,-8.99"/>
</g>
<!-- take&#45;home&#45;&gt;take&#45;home -->
<g id="edge4" class="edge">
<title>take&#45;home&#45;&gt;take&#45;home</title>
<path fill="none" stroke="black" d="M660.84,-31.1C679.71,-32.91 696.54,-28.55 696.54,-18 696.54,-9.43 685.43,-4.94 671.14,-4.53"/>
<polygon fill="black" stroke="black" points="670.71,-1.04 660.84,-4.9 670.96,-8.04 670.71,-1.04"/>
</g>
<!-- vendor&#45;available&#45;1 -->
<g id="node6" class="node">
<title>vendor&#45;available&#45;1</title>
<ellipse fill="none" stroke="black" cx="532" cy="-90" rx="83.93" ry="18"/>
<text text-anchor="middle" x="532" y="-85.8" font-family="Times,serif" font-size="14.00">vendor&#45;available&#45;1</text>
</g>
<!-- vendor&#45;available&#45;1&#45;&gt;take&#45;home -->
<g id="edge1" class="edge">
<title>vendor&#45;available&#45;1&#45;&gt;take&#45;home</title>
<path fill="none" stroke="black" d="M553.57,-72.41C565.21,-63.46 579.77,-52.25 592.55,-42.42"/>
<polygon fill="black" stroke="black" points="594.85,-45.07 600.64,-36.2 590.58,-39.52 594.85,-45.07"/>
</g>
<!-- client&#45;with&#45;item&#45;2 -->
<g id="node7" class="node">
<title>client&#45;with&#45;item&#45;2</title>
<ellipse fill="none" stroke="black" cx="715" cy="-90" rx="81.09" ry="18"/>
<text text-anchor="middle" x="715" y="-85.8" font-family="Times,serif" font-size="14.00">client&#45;with&#45;item&#45;2</text>
</g>
<!-- client&#45;with&#45;item&#45;2&#45;&gt;take&#45;home -->
<g id="edge3" class="edge">
<title>client&#45;with&#45;item&#45;2&#45;&gt;take&#45;home</title>
<path fill="none" stroke="black" d="M693.2,-72.41C681.43,-63.46 666.71,-52.25 653.79,-42.42"/>
<polygon fill="black" stroke="black" points="655.68,-39.47 645.61,-36.2 651.45,-45.04 655.68,-39.47"/>
</g>
</g>
</svg>
