<?xml version="1.0" encoding="UTF-8" standalone="no"?>
<!DOCTYPE svg PUBLIC "-//W3C//DTD SVG 1.1//EN"
 "http://www.w3.org/Graphics/SVG/1.1/DTD/svg11.dtd">
<!-- Generated by graphviz version 5.0.0 (20220707.2145)
 -->
<!-- Title: G Pages: 1 -->
<svg width="244pt" height="188pt"
 viewBox="0.00 0.00 243.97 188.00" xmlns="http://www.w3.org/2000/svg" xmlns:xlink="http://www.w3.org/1999/xlink">
<g id="graph0" class="graph" transform="scale(1 1) rotate(0) translate(4 184)">
<title>G</title>
<polygon fill="white" stroke="transparent" points="-4,4 -4,-184 239.97,-184 239.97,4 -4,4"/>
<!-- V1 -->
<g id="node1" class="node">
<title>V1</title>
<ellipse fill="none" stroke="black" cx="57.42" cy="-162" rx="27" ry="18"/>
<text text-anchor="middle" x="57.42" y="-157.8" font-family="Times,serif" font-size="14.00">V1</text>
</g>
<!-- take&#45;home -->
<g id="node5" class="node">
<title>take&#45;home</title>
<polygon fill="none" stroke="black" points="143,-108 67.84,-108 67.84,-72 143,-72 143,-108"/>
<text text-anchor="middle" x="105.42" y="-85.8" font-family="Times,serif" font-size="14.00">take&#45;home</text>
</g>
<!-- V1&#45;&gt;take&#45;home -->
<g id="edge1" class="edge">
<title>V1&#45;&gt;take&#45;home</title>
<path fill="none" stroke="black" d="M68.31,-145.12C74.07,-136.72 81.29,-126.2 87.82,-116.67"/>
<polygon fill="black" stroke="black" points="90.8,-118.52 93.56,-108.29 85.02,-114.56 90.8,-118.52"/>
</g>
<!-- Alice shirt -->
<g id="node2" class="node">
<title>Alice shirt</title>
<ellipse fill="none" stroke="black" cx="154.42" cy="-162" rx="51.56" ry="18"/>
<text text-anchor="middle" x="154.42" y="-157.8" font-family="Times,serif" font-size="14.00">Alice shirt</text>
</g>
<!-- Alice shirt&#45;&gt;take&#45;home -->
<g id="edge4" class="edge">
<title>Alice shirt&#45;&gt;take&#45;home</title>
<path fill="none" stroke="black" d="M142.81,-144.41C137.06,-136.2 129.99,-126.1 123.55,-116.9"/>
<polygon fill="black" stroke="black" points="126.24,-114.63 117.63,-108.45 120.5,-118.65 126.24,-114.63"/>
</g>
<!-- V1 shirt -->
<g id="node3" class="node">
<title>V1 shirt</title>
<ellipse fill="none" stroke="black" cx="42.42" cy="-18" rx="42.34" ry="18"/>
<text text-anchor="middle" x="42.42" y="-13.8" font-family="Times,serif" font-size="14.00">V1 shirt</text>
</g>
<!-- Alice 50&#45;EUR -->
<g id="node4" class="node">
<title>Alice 50&#45;EUR</title>
<ellipse fill="none" stroke="black" cx="169.42" cy="-18" rx="66.6" ry="18"/>
<text text-anchor="middle" x="169.42" y="-13.8" font-family="Times,serif" font-size="14.00">Alice 50&#45;EUR</text>
</g>
<!-- take&#45;home&#45;&gt;V1 shirt -->
<g id="edge3" class="edge">
<title>take&#45;home&#45;&gt;V1 shirt</title>
<path fill="none" stroke="black" d="M89.85,-71.7C81.99,-62.97 72.34,-52.24 63.8,-42.75"/>
<polygon fill="black" stroke="black" points="66.24,-40.24 56.95,-35.14 61.04,-44.92 66.24,-40.24"/>
</g>
<!-- take&#45;home&#45;&gt;Alice 50&#45;EUR -->
<g id="edge2" class="edge">
<title>take&#45;home&#45;&gt;Alice 50&#45;EUR</title>
<path fill="none" stroke="black" d="M121.24,-71.7C129.11,-63.09 138.74,-52.55 147.33,-43.17"/>
<polygon fill="black" stroke="black" points="150.06,-45.36 154.22,-35.62 144.89,-40.64 150.06,-45.36"/>
</g>
</g>
</svg>
