<?xml version="1.0" encoding="UTF-8" standalone="no"?>
<!DOCTYPE svg PUBLIC "-//W3C//DTD SVG 1.1//EN"
 "http://www.w3.org/Graphics/SVG/1.1/DTD/svg11.dtd">
<!-- Generated by graphviz version 5.0.0 (20220707.2145)
 -->
<!-- Title: G Pages: 1 -->
<svg width="264pt" height="188pt"
 viewBox="0.00 0.00 263.63 188.00" xmlns="http://www.w3.org/2000/svg" xmlns:xlink="http://www.w3.org/1999/xlink">
<g id="graph0" class="graph" transform="scale(1 1) rotate(0) translate(4 184)">
<title>G</title>
<polygon fill="white" stroke="transparent" points="-4,4 -4,-184 259.63,-184 259.63,4 -4,4"/>
<!-- vendor&#45;available -->
<g id="node1" class="node">
<title>vendor&#45;available</title>
<ellipse fill="none" stroke="black" cx="65.25" cy="-162" rx="27" ry="18"/>
<text text-anchor="middle" x="65.25" y="-157.8" font-family="Times,serif" font-size="14.00">V1</text>
</g>
<!-- take&#45;home -->
<g id="node5" class="node">
<title>take&#45;home</title>
<polygon fill="none" stroke="black" points="152.83,-108 77.67,-108 77.67,-72 152.83,-72 152.83,-108"/>
<text text-anchor="middle" x="115.25" y="-85.8" font-family="Times,serif" font-size="14.00">take&#45;home</text>
</g>
<!-- vendor&#45;available&#45;&gt;take&#45;home -->
<g id="edge1" class="edge">
<title>vendor&#45;available&#45;&gt;take&#45;home</title>
<path fill="none" stroke="black" d="M76.35,-145.46C82.4,-136.99 90.05,-126.29 96.95,-116.61"/>
<polygon fill="black" stroke="black" points="99.81,-118.63 102.78,-108.46 94.12,-114.56 99.81,-118.63"/>
</g>
<!-- client&#45;with&#45;item -->
<g id="node2" class="node">
<title>client&#45;with&#45;item</title>
<ellipse fill="none" stroke="black" cx="166.25" cy="-162" rx="56.22" ry="18"/>
<text text-anchor="middle" x="166.25" y="-157.8" font-family="Times,serif" font-size="14.00"> &#160;Alice shirt</text>
</g>
<!-- client&#45;with&#45;item&#45;&gt;take&#45;home -->
<g id="edge3" class="edge">
<title>client&#45;with&#45;item&#45;&gt;take&#45;home</title>
<path fill="none" stroke="black" d="M154.16,-144.41C148.12,-136.12 140.67,-125.89 133.91,-116.62"/>
<polygon fill="black" stroke="black" points="136.68,-114.47 127.96,-108.45 131.02,-118.59 136.68,-114.47"/>
</g>
<!-- vendor&#45;with&#45;item -->
<g id="node3" class="node">
<title>vendor&#45;with&#45;item</title>
<ellipse fill="none" stroke="black" cx="47.25" cy="-18" rx="47" ry="18"/>
<text text-anchor="middle" x="47.25" y="-13.8" font-family="Times,serif" font-size="14.00"> &#160;V1 shirt</text>
</g>
<!-- client&#45;with&#45;money -->
<g id="node4" class="node">
<title>client&#45;with&#45;money</title>
<ellipse fill="none" stroke="black" cx="184.25" cy="-18" rx="71.26" ry="18"/>
<text text-anchor="middle" x="184.25" y="-13.8" font-family="Times,serif" font-size="14.00"> &#160;Alice 50&#45;EUR</text>
</g>
<!-- take&#45;home&#45;&gt;vendor&#45;with&#45;item -->
<g id="edge4" class="edge">
<title>take&#45;home&#45;&gt;vendor&#45;with&#45;item</title>
<path fill="none" stroke="black" d="M98.44,-71.7C89.88,-62.88 79.34,-52.03 70.05,-42.47"/>
<polygon fill="black" stroke="black" points="72.41,-39.88 62.93,-35.14 67.39,-44.76 72.41,-39.88"/>
</g>
<!-- take&#45;home&#45;&gt;client&#45;with&#45;money -->
<g id="edge2" class="edge">
<title>take&#45;home&#45;&gt;client&#45;with&#45;money</title>
<path fill="none" stroke="black" d="M132.31,-71.7C140.87,-63.01 151.38,-52.34 160.7,-42.89"/>
<polygon fill="black" stroke="black" points="163.34,-45.2 167.87,-35.62 158.35,-40.29 163.34,-45.2"/>
</g>
</g>
</svg>
