<?xml version="1.0" encoding="UTF-8" standalone="no"?>
<!DOCTYPE svg PUBLIC "-//W3C//DTD SVG 1.1//EN"
 "http://www.w3.org/Graphics/SVG/1.1/DTD/svg11.dtd">
<!-- Generated by graphviz version 5.0.0 (20220707.2145)
 -->
<!-- Title: G Pages: 1 -->
<svg width="388pt" height="332pt"
 viewBox="0.00 0.00 387.61 332.00" xmlns="http://www.w3.org/2000/svg" xmlns:xlink="http://www.w3.org/1999/xlink">
<g id="graph0" class="graph" transform="scale(1 1) rotate(0) translate(4 328)">
<title>G</title>
<polygon fill="white" stroke="transparent" points="-4,4 -4,-328 383.61,-328 383.61,4 -4,4"/>
<!-- V1 -->
<g id="node1" class="node">
<title>V1</title>
<ellipse fill="none" stroke="black" cx="89.98" cy="-306" rx="27" ry="18"/>
<text text-anchor="middle" x="89.98" y="-301.8" font-family="Times,serif" font-size="14.00">V1</text>
</g>
<!-- take&#45;home -->
<g id="node8" class="node">
<title>take&#45;home</title>
<polygon fill="none" stroke="black" points="175.56,-252 100.4,-252 100.4,-216 175.56,-216 175.56,-252"/>
<text text-anchor="middle" x="137.98" y="-229.8" font-family="Times,serif" font-size="14.00">take&#45;home</text>
</g>
<!-- V1&#45;&gt;take&#45;home -->
<g id="edge1" class="edge">
<title>V1&#45;&gt;take&#45;home</title>
<path fill="none" stroke="black" d="M100.87,-289.12C106.63,-280.72 113.85,-270.2 120.38,-260.67"/>
<polygon fill="black" stroke="black" points="123.36,-262.52 126.12,-252.29 117.58,-258.56 123.36,-262.52"/>
</g>
<!-- Alice shirt -->
<g id="node2" class="node">
<title>Alice shirt</title>
<ellipse fill="none" stroke="black" cx="186.98" cy="-306" rx="51.56" ry="18"/>
<text text-anchor="middle" x="186.98" y="-301.8" font-family="Times,serif" font-size="14.00">Alice shirt</text>
</g>
<!-- Alice shirt&#45;&gt;take&#45;home -->
<g id="edge4" class="edge">
<title>Alice shirt&#45;&gt;take&#45;home</title>
<path fill="none" stroke="black" d="M175.37,-288.41C169.62,-280.2 162.55,-270.1 156.11,-260.9"/>
<polygon fill="black" stroke="black" points="158.8,-258.63 150.19,-252.45 153.06,-262.65 158.8,-258.63"/>
</g>
<!-- V1 shirt -->
<g id="node3" class="node">
<title>V1 shirt</title>
<ellipse fill="none" stroke="black" cx="74.98" cy="-162" rx="42.34" ry="18"/>
<text text-anchor="middle" x="74.98" y="-157.8" font-family="Times,serif" font-size="14.00">V1 shirt</text>
</g>
<!-- packs&#45;shirt -->
<g id="node9" class="node">
<title>packs&#45;shirt</title>
<polygon fill="none" stroke="black" points="112.91,-108 35.05,-108 35.05,-72 112.91,-72 112.91,-108"/>
<text text-anchor="middle" x="73.98" y="-85.8" font-family="Times,serif" font-size="14.00">packs&#45;shirt</text>
</g>
<!-- V1 shirt&#45;&gt;packs&#45;shirt -->
<g id="edge5" class="edge">
<title>V1 shirt&#45;&gt;packs&#45;shirt</title>
<path fill="none" stroke="black" d="M74.73,-143.7C74.62,-135.98 74.49,-126.71 74.37,-118.11"/>
<polygon fill="black" stroke="black" points="77.87,-118.05 74.23,-108.1 70.87,-118.15 77.87,-118.05"/>
</g>
<!-- Alice 50&#45;EUR -->
<g id="node4" class="node">
<title>Alice 50&#45;EUR</title>
<ellipse fill="none" stroke="black" cx="201.98" cy="-162" rx="66.6" ry="18"/>
<text text-anchor="middle" x="201.98" y="-157.8" font-family="Times,serif" font-size="14.00">Alice 50&#45;EUR</text>
</g>
<!-- pays&#45;take&#45;home -->
<g id="node10" class="node">
<title>pays&#45;take&#45;home</title>
<polygon fill="none" stroke="black" points="254.89,-108 149.07,-108 149.07,-72 254.89,-72 254.89,-108"/>
<text text-anchor="middle" x="201.98" y="-85.8" font-family="Times,serif" font-size="14.00">pays&#45;take&#45;home</text>
</g>
<!-- Alice 50&#45;EUR&#45;&gt;pays&#45;take&#45;home -->
<g id="edge7" class="edge">
<title>Alice 50&#45;EUR&#45;&gt;pays&#45;take&#45;home</title>
<path fill="none" stroke="black" d="M201.98,-143.7C201.98,-135.98 201.98,-126.71 201.98,-118.11"/>
<polygon fill="black" stroke="black" points="205.48,-118.1 201.98,-108.1 198.48,-118.1 205.48,-118.1"/>
</g>
<!-- cashier -->
<g id="node5" class="node">
<title>cashier</title>
<ellipse fill="none" stroke="black" cx="201.98" cy="-18" rx="38.26" ry="18"/>
<text text-anchor="middle" x="201.98" y="-13.8" font-family="Times,serif" font-size="14.00">cashier</text>
</g>
<!-- cashier&#45;&gt;pays&#45;take&#45;home -->
<g id="edge9" class="edge">
<title>cashier&#45;&gt;pays&#45;take&#45;home</title>
<path fill="none" stroke="black" d="M207.88,-36.1C208.68,-43.79 208.92,-53.05 208.59,-61.67"/>
<polygon fill="black" stroke="black" points="205.09,-61.48 207.9,-71.7 212.07,-61.96 205.09,-61.48"/>
</g>
<!-- Alice receipt -->
<g id="node6" class="node">
<title>Alice receipt</title>
<ellipse fill="none" stroke="black" cx="318.98" cy="-18" rx="60.76" ry="18"/>
<text text-anchor="middle" x="318.98" y="-13.8" font-family="Times,serif" font-size="14.00">Alice receipt</text>
</g>
<!-- V1 packed&#45;shirt -->
<g id="node7" class="node">
<title>V1 packed&#45;shirt</title>
<ellipse fill="none" stroke="black" cx="72.98" cy="-18" rx="72.96" ry="18"/>
<text text-anchor="middle" x="72.98" y="-13.8" font-family="Times,serif" font-size="14.00">V1 packed&#45;shirt</text>
</g>
<!-- take&#45;home&#45;&gt;V1 shirt -->
<g id="edge3" class="edge">
<title>take&#45;home&#45;&gt;V1 shirt</title>
<path fill="none" stroke="black" d="M122.41,-215.7C114.55,-206.97 104.9,-196.24 96.36,-186.75"/>
<polygon fill="black" stroke="black" points="98.8,-184.24 89.51,-179.14 93.6,-188.92 98.8,-184.24"/>
</g>
<!-- take&#45;home&#45;&gt;Alice 50&#45;EUR -->
<g id="edge2" class="edge">
<title>take&#45;home&#45;&gt;Alice 50&#45;EUR</title>
<path fill="none" stroke="black" d="M153.8,-215.7C161.67,-207.09 171.3,-196.55 179.89,-187.17"/>
<polygon fill="black" stroke="black" points="182.62,-189.36 186.78,-179.62 177.45,-184.64 182.62,-189.36"/>
</g>
<!-- packs&#45;shirt&#45;&gt;V1 packed&#45;shirt -->
<g id="edge6" class="edge">
<title>packs&#45;shirt&#45;&gt;V1 packed&#45;shirt</title>
<path fill="none" stroke="black" d="M73.73,-71.7C73.62,-63.98 73.49,-54.71 73.37,-46.11"/>
<polygon fill="black" stroke="black" points="76.87,-46.05 73.23,-36.1 69.87,-46.15 76.87,-46.05"/>
</g>
<!-- pays&#45;take&#45;home&#45;&gt;cashier -->
<g id="edge8" class="edge">
<title>pays&#45;take&#45;home&#45;&gt;cashier</title>
<path fill="none" stroke="black" d="M196.07,-71.7C195.27,-63.98 195.04,-54.71 195.39,-46.11"/>
<polygon fill="black" stroke="black" points="198.88,-46.32 196.09,-36.1 191.9,-45.84 198.88,-46.32"/>
</g>
<!-- pays&#45;take&#45;home&#45;&gt;Alice receipt -->
<g id="edge10" class="edge">
<title>pays&#45;take&#45;home&#45;&gt;Alice receipt</title>
<path fill="none" stroke="black" d="M230.6,-71.88C246.85,-62.16 267.3,-49.92 284.43,-39.67"/>
<polygon fill="black" stroke="black" points="286.27,-42.65 293.05,-34.51 282.67,-36.64 286.27,-42.65"/>
</g>
</g>
</svg>
