<?xml version="1.0" encoding="UTF-8" standalone="no"?>
<!DOCTYPE svg PUBLIC "-//W3C//DTD SVG 1.1//EN"
 "http://www.w3.org/Graphics/SVG/1.1/DTD/svg11.dtd">
<!-- Generated by graphviz version 5.0.0 (20220707.2145)
 -->
<!-- Title: G Pages: 1 -->
<svg width="192pt" height="222pt"
 viewBox="0.00 0.00 192.36 221.60" xmlns="http://www.w3.org/2000/svg" xmlns:xlink="http://www.w3.org/1999/xlink">
<g id="graph0" class="graph" transform="scale(1 1) rotate(0) translate(4 217.6)">
<title>G</title>
<polygon fill="white" stroke="transparent" points="-4,4 -4,-217.6 188.36,-217.6 188.36,4 -4,4"/>
<!-- vendor&#45;available -->
<g id="node1" class="node">
<title>vendor&#45;available</title>
<ellipse fill="none" stroke="black" cx="27" cy="-195.6" rx="27" ry="18"/>
<text text-anchor="middle" x="27" y="-191.4" font-family="Times,serif" font-size="14.00">V1</text>
</g>
<!-- take&#45;home -->
<g id="node5" class="node">
<title>take&#45;home</title>
<polygon fill="none" stroke="black" points="114.58,-124.8 39.42,-124.8 39.42,-88.8 114.58,-88.8 114.58,-124.8"/>
<text text-anchor="middle" x="77" y="-102.6" font-family="Times,serif" font-size="14.00">take&#45;home</text>
</g>
<!-- vendor&#45;available&#45;&gt;take&#45;home -->
<g id="edge1" class="edge">
<title>vendor&#45;available&#45;&gt;take&#45;home</title>
<path fill="none" stroke="black" d="M36.4,-178.27C43.6,-165.79 53.66,-148.32 61.97,-133.9"/>
<polygon fill="black" stroke="black" points="65.17,-135.36 67.12,-124.94 59.1,-131.86 65.17,-135.36"/>
<text text-anchor="middle" x="60.5" y="-147" font-family="Times,serif" font-size="14.00">y</text>
</g>
<!-- client&#45;with&#45;item -->
<g id="node2" class="node">
<title>client&#45;with&#45;item</title>
<ellipse fill="none" stroke="black" cx="128" cy="-195.6" rx="56.22" ry="18"/>
<text text-anchor="middle" x="128" y="-191.4" font-family="Times,serif" font-size="14.00"> &#160;Alice shirt</text>
</g>
<!-- client&#45;with&#45;item&#45;&gt;take&#45;home -->
<g id="edge2" class="edge">
<title>client&#45;with&#45;item&#45;&gt;take&#45;home</title>
<path fill="none" stroke="black" d="M118.17,-177.86C110.85,-165.42 100.73,-148.19 92.36,-133.94"/>
<polygon fill="black" stroke="black" points="95.24,-131.93 87.15,-125.08 89.2,-135.47 95.24,-131.93"/>
<text text-anchor="middle" x="121.77" y="-147" font-family="Times,serif" font-size="14.00">(x, z)</text>
</g>
<!-- vendor&#45;with&#45;item -->
<g id="node3" class="node">
<title>vendor&#45;with&#45;item</title>
<ellipse fill="none" stroke="black" cx="41" cy="-18" rx="27" ry="18"/>
<text text-anchor="middle" x="41" y="-13.8" font-family="Times,serif" font-size="14.00"> </text>
</g>
<!-- client&#45;with&#45;money -->
<g id="node4" class="node">
<title>client&#45;with&#45;money</title>
<ellipse fill="none" stroke="black" cx="113" cy="-18" rx="27" ry="18"/>
<text text-anchor="middle" x="113" y="-13.8" font-family="Times,serif" font-size="14.00"> </text>
</g>
<!-- take&#45;home&#45;&gt;vendor&#45;with&#45;item -->
<g id="edge4" class="edge">
<title>take&#45;home&#45;&gt;vendor&#45;with&#45;item</title>
<path fill="none" stroke="black" d="M67.19,-88.62C64.19,-83.03 61.02,-76.74 58.46,-70.8 55.04,-62.83 51.83,-53.95 49.12,-45.82"/>
<polygon fill="black" stroke="black" points="52.38,-44.51 45.98,-36.06 45.71,-46.65 52.38,-44.51"/>
<text text-anchor="middle" x="73.77" y="-58.2" font-family="Times,serif" font-size="14.00">(y, z)</text>
</g>
<!-- take&#45;home&#45;&gt;client&#45;with&#45;money -->
<g id="edge3" class="edge">
<title>take&#45;home&#45;&gt;client&#45;with&#45;money</title>
<path fill="none" stroke="black" d="M84.11,-88.65C89.26,-76.25 96.3,-59.26 102.15,-45.17"/>
<polygon fill="black" stroke="black" points="105.55,-46.1 106.15,-35.52 99.08,-43.42 105.55,-46.1"/>
<text text-anchor="middle" x="115.11" y="-58.2" font-family="Times,serif" font-size="14.00">(x, m)</text>
</g>
</g>
</svg>
