<?xml version="1.0" encoding="UTF-8" standalone="no"?>
<!DOCTYPE svg PUBLIC "-//W3C//DTD SVG 1.1//EN"
 "http://www.w3.org/Graphics/SVG/1.1/DTD/svg11.dtd">
<!-- Generated by graphviz version 5.0.0 (20220707.2145)
 -->
<!-- Title: G Pages: 1 -->
<svg width="1582pt" height="222pt"
 viewBox="0.00 0.00 1581.94 221.60" xmlns="http://www.w3.org/2000/svg" xmlns:xlink="http://www.w3.org/1999/xlink">
<g id="graph0" class="graph" transform="scale(1 1) rotate(0) translate(4 217.6)">
<title>G</title>
<polygon fill="white" stroke="transparent" points="-4,4 -4,-217.6 1577.94,-217.6 1577.94,4 -4,4"/>
<!-- vendor&#45;available -->
<g id="node1" class="node">
<title>vendor&#45;available</title>
<ellipse fill="none" stroke="black" cx="663.01" cy="-195.6" rx="27" ry="18"/>
<text text-anchor="middle" x="663.01" y="-191.4" font-family="Times,serif" font-size="14.00"> </text>
</g>
<!-- take&#45;home -->
<g id="node5" class="node">
<title>take&#45;home</title>
<polygon fill="none" stroke="black" points="736.59,-124.8 661.43,-124.8 661.43,-88.8 736.59,-88.8 736.59,-124.8"/>
<text text-anchor="middle" x="699.01" y="-102.6" font-family="Times,serif" font-size="14.00">take&#45;home</text>
</g>
<!-- vendor&#45;available&#45;&gt;take&#45;home -->
<g id="edge1" class="edge">
<title>vendor&#45;available&#45;&gt;take&#45;home</title>
<path fill="none" stroke="black" d="M669.95,-177.86C675.06,-165.54 682.12,-148.52 688,-134.35"/>
<polygon fill="black" stroke="black" points="691.24,-135.66 691.84,-125.08 684.78,-132.97 691.24,-135.66"/>
<text text-anchor="middle" x="688.51" y="-147" font-family="Times,serif" font-size="14.00">y</text>
</g>
<!-- client&#45;with&#45;item -->
<g id="node2" class="node">
<title>client&#45;with&#45;item</title>
<ellipse fill="none" stroke="black" cx="735.01" cy="-195.6" rx="27" ry="18"/>
<text text-anchor="middle" x="735.01" y="-191.4" font-family="Times,serif" font-size="14.00"> </text>
</g>
<!-- client&#45;with&#45;item&#45;&gt;take&#45;home -->
<g id="edge2" class="edge">
<title>client&#45;with&#45;item&#45;&gt;take&#45;home</title>
<path fill="none" stroke="black" d="M728.07,-177.86C722.95,-165.54 715.9,-148.52 710.02,-134.35"/>
<polygon fill="black" stroke="black" points="713.24,-132.97 706.18,-125.08 706.77,-135.66 713.24,-132.97"/>
<text text-anchor="middle" x="734.78" y="-147" font-family="Times,serif" font-size="14.00">(x, z)</text>
</g>
<!-- vendor&#45;with&#45;item -->
<g id="node3" class="node">
<title>vendor&#45;with&#45;item</title>
<ellipse fill="none" stroke="black" cx="301.01" cy="-18" rx="301.02" ry="18"/>
<text text-anchor="middle" x="301.01" y="-13.8" font-family="Times,serif" font-size="14.00"> &#160;V1 shirt V1 shoes V2 shirt V2 shoes V1 shirt V1 shoes V2 shirt V2 shoes</text>
</g>
<!-- client&#45;with&#45;money -->
<g id="node4" class="node">
<title>client&#45;with&#45;money</title>
<ellipse fill="none" stroke="black" cx="1097.01" cy="-18" rx="476.86" ry="18"/>
<text text-anchor="middle" x="1097.01" y="-13.8" font-family="Times,serif" font-size="14.00"> &#160;Alice 50&#45;EUR Bob 110&#45;EUR Alice 50&#45;EUR Bob 110&#45;EUR Alice 50&#45;EUR Bob 110&#45;EUR Alice 50&#45;EUR Bob 110&#45;EUR</text>
</g>
<!-- take&#45;home&#45;&gt;vendor&#45;with&#45;item -->
<g id="edge4" class="edge">
<title>take&#45;home&#45;&gt;vendor&#45;with&#45;item</title>
<path fill="none" stroke="black" d="M661.21,-97.56C598.59,-83.9 471.8,-56.25 386.62,-37.67"/>
<polygon fill="black" stroke="black" points="387.22,-34.22 376.7,-35.51 385.73,-41.06 387.22,-34.22"/>
<text text-anchor="middle" x="550.78" y="-58.2" font-family="Times,serif" font-size="14.00">(y, z)</text>
</g>
<!-- take&#45;home&#45;&gt;client&#45;with&#45;money -->
<g id="edge3" class="edge">
<title>take&#45;home&#45;&gt;client&#45;with&#45;money</title>
<path fill="none" stroke="black" d="M736.81,-97.56C799.06,-83.98 924.71,-56.58 1009.87,-38"/>
<polygon fill="black" stroke="black" points="1010.77,-41.39 1019.79,-35.84 1009.27,-34.55 1010.77,-41.39"/>
<text text-anchor="middle" x="950.12" y="-58.2" font-family="Times,serif" font-size="14.00">(x, m)</text>
</g>
</g>
</svg>
