<?xml version="1.0" encoding="UTF-8" standalone="no"?>
<!DOCTYPE svg PUBLIC "-//W3C//DTD SVG 1.1//EN"
 "http://www.w3.org/Graphics/SVG/1.1/DTD/svg11.dtd">
<!-- Generated by graphviz version 5.0.0 (20220707.2145)
 -->
<!-- Title: G Pages: 1 -->
<svg width="264pt" height="222pt"
 viewBox="0.00 0.00 263.63 221.60" xmlns="http://www.w3.org/2000/svg" xmlns:xlink="http://www.w3.org/1999/xlink">
<g id="graph0" class="graph" transform="scale(1 1) rotate(0) translate(4 217.6)">
<title>G</title>
<polygon fill="white" stroke="transparent" points="-4,4 -4,-217.6 259.63,-217.6 259.63,4 -4,4"/>
<!-- vendor&#45;available -->
<g id="node1" class="node">
<title>vendor&#45;available</title>
<ellipse fill="none" stroke="black" cx="79.25" cy="-195.6" rx="27" ry="18"/>
<text text-anchor="middle" x="79.25" y="-191.4" font-family="Times,serif" font-size="14.00"> </text>
</g>
<!-- take&#45;home -->
<g id="node5" class="node">
<title>take&#45;home</title>
<polygon fill="none" stroke="black" points="152.83,-124.8 77.67,-124.8 77.67,-88.8 152.83,-88.8 152.83,-124.8"/>
<text text-anchor="middle" x="115.25" y="-102.6" font-family="Times,serif" font-size="14.00">take&#45;home</text>
</g>
<!-- vendor&#45;available&#45;&gt;take&#45;home -->
<g id="edge1" class="edge">
<title>vendor&#45;available&#45;&gt;take&#45;home</title>
<path fill="none" stroke="black" d="M86.19,-177.86C91.3,-165.54 98.36,-148.52 104.24,-134.35"/>
<polygon fill="black" stroke="black" points="107.49,-135.66 108.08,-125.08 101.02,-132.97 107.49,-135.66"/>
<text text-anchor="middle" x="104.75" y="-147" font-family="Times,serif" font-size="14.00">y</text>
</g>
<!-- client&#45;with&#45;item -->
<g id="node2" class="node">
<title>client&#45;with&#45;item</title>
<ellipse fill="none" stroke="black" cx="151.25" cy="-195.6" rx="27" ry="18"/>
<text text-anchor="middle" x="151.25" y="-191.4" font-family="Times,serif" font-size="14.00"> </text>
</g>
<!-- client&#45;with&#45;item&#45;&gt;take&#45;home -->
<g id="edge2" class="edge">
<title>client&#45;with&#45;item&#45;&gt;take&#45;home</title>
<path fill="none" stroke="black" d="M144.31,-177.86C139.2,-165.54 132.14,-148.52 126.26,-134.35"/>
<polygon fill="black" stroke="black" points="129.48,-132.97 122.42,-125.08 123.01,-135.66 129.48,-132.97"/>
<text text-anchor="middle" x="151.02" y="-147" font-family="Times,serif" font-size="14.00">(x, z)</text>
</g>
<!-- vendor&#45;with&#45;item -->
<g id="node3" class="node">
<title>vendor&#45;with&#45;item</title>
<ellipse fill="none" stroke="black" cx="47.25" cy="-18" rx="47" ry="18"/>
<text text-anchor="middle" x="47.25" y="-13.8" font-family="Times,serif" font-size="14.00"> &#160;V1 shirt</text>
</g>
<!-- client&#45;with&#45;money -->
<g id="node4" class="node">
<title>client&#45;with&#45;money</title>
<ellipse fill="none" stroke="black" cx="184.25" cy="-18" rx="71.26" ry="18"/>
<text text-anchor="middle" x="184.25" y="-13.8" font-family="Times,serif" font-size="14.00"> &#160;Alice 50&#45;EUR</text>
</g>
<!-- take&#45;home&#45;&gt;vendor&#45;with&#45;item -->
<g id="edge4" class="edge">
<title>take&#45;home&#45;&gt;vendor&#45;with&#45;item</title>
<path fill="none" stroke="black" d="M101.82,-88.65C91.72,-75.77 77.75,-57.93 66.47,-43.54"/>
<polygon fill="black" stroke="black" points="69.12,-41.24 60.2,-35.52 63.61,-45.55 69.12,-41.24"/>
<text text-anchor="middle" x="103.02" y="-58.2" font-family="Times,serif" font-size="14.00">(y, z)</text>
</g>
<!-- take&#45;home&#45;&gt;client&#45;with&#45;money -->
<g id="edge3" class="edge">
<title>take&#45;home&#45;&gt;client&#45;with&#45;money</title>
<path fill="none" stroke="black" d="M128.88,-88.65C139.06,-75.85 153.12,-58.16 164.52,-43.82"/>
<polygon fill="black" stroke="black" points="167.4,-45.82 170.88,-35.82 161.92,-41.47 167.4,-45.82"/>
<text text-anchor="middle" x="172.36" y="-58.2" font-family="Times,serif" font-size="14.00">(x, m)</text>
</g>
</g>
</svg>
