<?xml version="1.0" encoding="UTF-8" standalone="no"?>
<!DOCTYPE svg PUBLIC "-//W3C//DTD SVG 1.1//EN"
 "http://www.w3.org/Graphics/SVG/1.1/DTD/svg11.dtd">
<!-- Generated by graphviz version 5.0.1 (20220820.1526)
 -->
<!-- Title: RG Pages: 1 -->
<svg width="2630pt" height="149pt"
 viewBox="0.00 0.00 2630.45 149.20" xmlns="http://www.w3.org/2000/svg" xmlns:xlink="http://www.w3.org/1999/xlink">
<g id="graph0" class="graph" transform="scale(1 1) rotate(0) translate(4 145.2)">
<title>RG</title>
<polygon fill="white" stroke="none" points="-4,4 -4,-145.2 2626.45,-145.2 2626.45,4 -4,4"/>
<!-- rs0 -->
<g id="node1" class="node">
<title>rs0</title>
<g id="a_node1"><a xlink:href="./rs0.svg" xlink:title="rs0">
<ellipse fill="none" stroke="black" cx="771.45" cy="-123.2" rx="27" ry="18"/>
<text text-anchor="middle" x="771.45" y="-119.5" font-family="Times New Roman,serif" font-size="14.00">rs0</text>
</a>
</g>
</g>
<g id="node2" class="node">
<title></title>
<g id="a_node2"><a xlink:href="./.svg">
<ellipse fill="none" stroke="black" cx="771.45" cy="-36.2" rx="27" ry="18"/>
</a>
</g>
</g>
<!-- rs0&#45;&gt; -->
<g id="edge1" class="edge">
<title>rs0&#45;&gt;</title>
<path fill="none" stroke="black" d="M744.25,-122.01C610.67,-120.9 29.56,-114.53 3.45,-87.2 -1.15,-82.38 -1.15,-77.03 3.45,-72.2 28.95,-45.52 583.73,-38.82 734.13,-37.49"/>
<polygon fill="black" stroke="black" points="734.28,-40.99 744.25,-37.4 734.22,-33.99 734.28,-40.99"/>
<text text-anchor="middle" x="32.45" y="-76" font-family="Times New Roman,serif" font-size="14.00">take&#45;home</text>
</g>
<!-- rs0&#45;&gt; -->
<g id="edge2" class="edge">
<title>rs0&#45;&gt;</title>
<path fill="none" stroke="black" d="M744.28,-121.85C619.61,-120.12 107.57,-111.53 84.45,-87.2 79.86,-82.37 79.86,-77.04 84.45,-72.2 106.98,-48.5 593.92,-39.74 734.04,-37.7"/>
<polygon fill="black" stroke="black" points="734.33,-41.2 744.28,-37.56 734.23,-34.2 734.33,-41.2"/>
<text text-anchor="middle" x="113.45" y="-76" font-family="Times New Roman,serif" font-size="14.00">take&#45;home</text>
</g>
<!-- rs0&#45;&gt; -->
<g id="edge3" class="edge">
<title>rs0&#45;&gt;</title>
<path fill="none" stroke="black" d="M744.46,-121.67C629.49,-119.25 185.6,-108.54 165.45,-87.2 160.88,-82.36 160.88,-77.05 165.45,-72.2 185.04,-51.45 605.53,-40.76 734.31,-37.96"/>
<polygon fill="black" stroke="black" points="734.54,-41.46 744.46,-37.74 734.39,-34.46 734.54,-41.46"/>
<text text-anchor="middle" x="194.45" y="-76" font-family="Times New Roman,serif" font-size="14.00">take&#45;home</text>
</g>
<!-- rs0&#45;&gt; -->
<g id="edge4" class="edge">
<title>rs0&#45;&gt;</title>
<path fill="none" stroke="black" d="M744.22,-122.51C641.36,-123.38 280.66,-123.77 246.45,-87.2 241.9,-82.34 241.9,-77.07 246.45,-72.2 279.63,-36.75 619.82,-36.04 734.18,-36.82"/>
<polygon fill="black" stroke="black" points="734.19,-40.32 744.22,-36.9 734.24,-33.33 734.19,-40.32"/>
<text text-anchor="middle" x="275.45" y="-76" font-family="Times New Roman,serif" font-size="14.00">take&#45;home</text>
</g>
<!-- rs0&#45;&gt; -->
<g id="edge5" class="edge">
<title>rs0&#45;&gt;</title>
<path fill="none" stroke="black" d="M744.4,-122.15C652.4,-121.7 355.79,-117.87 327.45,-87.2 322.93,-82.31 322.93,-77.1 327.45,-72.2 354.83,-42.59 632.44,-38 734.27,-37.31"/>
<polygon fill="black" stroke="black" points="734.42,-40.81 744.4,-37.26 734.38,-33.81 734.42,-40.81"/>
<text text-anchor="middle" x="356.45" y="-76" font-family="Times New Roman,serif" font-size="14.00">take&#45;home</text>
</g>
<!-- rs0&#45;&gt; -->
<g id="edge6" class="edge">
<title>rs0&#45;&gt;</title>
<path fill="none" stroke="black" d="M744.4,-121.65C664.05,-119.71 430.96,-111.99 408.45,-87.2 363.84,-38.08 633,-35.82 734.17,-36.66"/>
<polygon fill="black" stroke="black" points="734.22,-40.16 744.25,-36.76 734.29,-33.16 734.22,-40.16"/>
<text text-anchor="middle" x="437.45" y="-76" font-family="Times New Roman,serif" font-size="14.00">take&#45;home</text>
</g>
<!-- rs0&#45;&gt; -->
<g id="edge7" class="edge">
<title>rs0&#45;&gt;</title>
<path fill="none" stroke="black" d="M744.33,-120.85C676.96,-117.2 506.2,-106.15 489.45,-87.2 456.26,-49.64 650.29,-40.23 734.2,-37.93"/>
<polygon fill="black" stroke="black" points="734.43,-41.43 744.34,-37.67 734.25,-34.43 734.43,-41.43"/>
<text text-anchor="middle" x="518.45" y="-76" font-family="Times New Roman,serif" font-size="14.00">take&#45;home</text>
</g>
<!-- rs0&#45;&gt; -->
<g id="edge8" class="edge">
<title>rs0&#45;&gt;</title>
<path fill="none" stroke="black" d="M744.54,-121.63C694.99,-119.94 592.4,-113.3 570.45,-87.2 566.16,-82.1 566.16,-77.31 570.45,-72.2 590.98,-47.79 682.1,-40.41 734.33,-38.17"/>
<polygon fill="black" stroke="black" points="734.68,-41.66 744.54,-37.78 734.41,-34.67 734.68,-41.66"/>
<text text-anchor="middle" x="599.45" y="-76" font-family="Times New Roman,serif" font-size="14.00">take&#45;home</text>
</g>
<!-- rs0&#45;&gt; -->
<g id="edge9" class="edge">
<title>rs0&#45;&gt;</title>
<path fill="none" stroke="black" d="M744.37,-122.92C716.05,-122.03 672.81,-115.68 651.45,-87.2 628.01,-55.95 691.15,-44.1 734.49,-39.7"/>
<polygon fill="black" stroke="black" points="734.84,-43.19 744.48,-38.79 734.2,-36.22 734.84,-43.19"/>
<text text-anchor="middle" x="680.45" y="-76" font-family="Times New Roman,serif" font-size="14.00">take&#45;home</text>
</g>
<!-- rs0&#45;&gt; -->
<g id="edge10" class="edge">
<title>rs0&#45;&gt;</title>
<path fill="none" stroke="black" d="M752.26,-110.27C744.59,-104.37 736.61,-96.51 732.45,-87.2 727.32,-75.7 734.57,-64.49 744.15,-55.61"/>
<polygon fill="black" stroke="black" points="746.65,-58.09 752.15,-49.03 742.2,-52.69 746.65,-58.09"/>
<text text-anchor="middle" x="761.45" y="-76" font-family="Times New Roman,serif" font-size="14.00">take&#45;home</text>
</g>
<!-- rs0&#45;&gt; -->
<g id="edge11" class="edge">
<title>rs0&#45;&gt;</title>
<path fill="none" stroke="black" d="M782.63,-106.74C788.33,-97.01 793.47,-84.09 790.45,-72.2 789.58,-68.75 788.28,-65.27 786.77,-61.91"/>
<polygon fill="black" stroke="black" points="789.82,-60.18 782.13,-52.89 783.6,-63.38 789.82,-60.18"/>
<text text-anchor="middle" x="819.45" y="-76" font-family="Times New Roman,serif" font-size="14.00">take&#45;home</text>
</g>
<!-- rs0&#45;&gt; -->
<g id="edge12" class="edge">
<title>rs0&#45;&gt;</title>
<path fill="none" stroke="black" d="M797.83,-118.47C816.56,-114.29 840.42,-105.51 852.45,-87.2 866.32,-66.11 834.8,-52.39 807.12,-44.75"/>
<polygon fill="black" stroke="black" points="807.75,-41.3 797.19,-42.21 806.01,-48.08 807.75,-41.3"/>
<text text-anchor="middle" x="884.45" y="-76" font-family="Times New Roman,serif" font-size="14.00">take&#45;home</text>
</g>
<!-- rs0&#45;&gt; -->
<g id="edge13" class="edge">
<title>rs0&#45;&gt;</title>
<path fill="none" stroke="black" d="M797.94,-119.72C835.91,-115.55 902.85,-105.73 917.45,-87.2 947.63,-48.94 861.24,-39.81 808.68,-37.73"/>
<polygon fill="black" stroke="black" points="808.77,-34.23 798.66,-37.4 808.54,-41.23 808.77,-34.23"/>
<text text-anchor="middle" x="952.45" y="-76" font-family="Times New Roman,serif" font-size="14.00">take&#45;home</text>
</g>
<!-- rs0&#45;&gt; -->
<g id="edge14" class="edge">
<title>rs0&#45;&gt;</title>
<path fill="none" stroke="black" d="M798.47,-121.95C850.53,-120.81 961.75,-115.1 985.45,-87.2 989.77,-82.12 989.77,-77.29 985.45,-72.2 963.18,-46 863.68,-39.37 808.54,-37.72"/>
<polygon fill="black" stroke="black" points="808.55,-34.22 798.47,-37.46 808.37,-41.22 808.55,-34.22"/>
<text text-anchor="middle" x="1017.45" y="-76" font-family="Times New Roman,serif" font-size="14.00">take&#45;home</text>
</g>
<!-- rs0&#45;&gt; -->
<g id="edge15" class="edge">
<title>rs0&#45;&gt;</title>
<path fill="none" stroke="black" d="M798.29,-120.82C864.95,-117.12 1033.9,-105.96 1050.45,-87.2 1083.24,-50.05 891.78,-40.41 808.61,-37.99"/>
<polygon fill="black" stroke="black" points="808.64,-34.49 798.55,-37.72 808.45,-41.49 808.64,-34.49"/>
<text text-anchor="middle" x="1082.45" y="-76" font-family="Times New Roman,serif" font-size="14.00">take&#45;home</text>
</g>
<!-- rs0&#45;&gt; -->
<g id="edge16" class="edge">
<title>rs0&#45;&gt;</title>
<path fill="none" stroke="black" d="M798.46,-121.49C875.86,-119.18 1094.3,-110.62 1115.45,-87.2 1157.37,-40.8 906.01,-36.76 808.71,-36.91"/>
<polygon fill="black" stroke="black" points="808.43,-33.41 798.45,-36.94 808.46,-40.41 808.43,-33.41"/>
<text text-anchor="middle" x="1148.45" y="-76" font-family="Times New Roman,serif" font-size="14.00">take&#45;home</text>
</g>
<!-- rs0&#45;&gt; -->
<g id="edge17" class="edge">
<title>rs0&#45;&gt;</title>
<path fill="none" stroke="black" d="M798.55,-121.96C885.84,-120.91 1155.57,-115.39 1181.45,-87.2 1185.96,-82.29 1185.96,-77.12 1181.45,-72.2 1156.51,-45.04 905.01,-38.93 808.7,-37.58"/>
<polygon fill="black" stroke="black" points="808.59,-34.08 798.55,-37.45 808.5,-41.08 808.59,-34.08"/>
<text text-anchor="middle" x="1213.45" y="-76" font-family="Times New Roman,serif" font-size="14.00">take&#45;home</text>
</g>
<!-- rs0&#45;&gt; -->
<g id="edge18" class="edge">
<title>rs0&#45;&gt;</title>
<path fill="none" stroke="black" d="M798.71,-122.3C895.12,-122.37 1215.89,-120.11 1246.45,-87.2 1250.99,-82.32 1250.99,-77.09 1246.45,-72.2 1216.87,-40.36 915.49,-37.22 808.71,-37.11"/>
<polygon fill="black" stroke="black" points="808.71,-33.61 798.71,-37.11 808.71,-40.61 808.71,-33.61"/>
<text text-anchor="middle" x="1278.45" y="-76" font-family="Times New Roman,serif" font-size="14.00">take&#45;home</text>
</g>
<!-- rs0&#45;&gt; -->
<g id="edge19" class="edge">
<title>rs0&#45;&gt;</title>
<path fill="none" stroke="black" d="M798.75,-122.56C903.56,-123.66 1276.16,-124.86 1311.45,-87.2 1316.01,-82.34 1316.01,-77.07 1311.45,-72.2 1277.23,-35.69 925.81,-35.71 808.99,-36.75"/>
<polygon fill="black" stroke="black" points="808.71,-33.25 798.75,-36.85 808.78,-40.25 808.71,-33.25"/>
<text text-anchor="middle" x="1343.45" y="-76" font-family="Times New Roman,serif" font-size="14.00">take&#45;home</text>
</g>
<!-- rs0&#45;&gt; -->
<g id="edge20" class="edge">
<title>rs0&#45;&gt;</title>
<path fill="none" stroke="black" d="M798.4,-121.67C913.18,-119.24 1356.35,-108.51 1376.45,-87.2 1381.03,-82.36 1381.03,-77.05 1376.45,-72.2 1356.9,-51.48 937.1,-40.77 808.54,-37.96"/>
<polygon fill="black" stroke="black" points="808.48,-34.46 798.4,-37.74 808.33,-41.46 808.48,-34.46"/>
<text text-anchor="middle" x="1408.45" y="-76" font-family="Times New Roman,serif" font-size="14.00">take&#45;home</text>
</g>
<!-- &#45;&gt; -->
<g id="edge21" class="edge">
<title>&#45;&gt;</title>
<path fill="none" stroke="black" d="M798.69,-37.7C808.48,-37.74 816.45,-37.24 816.45,-36.2 816.45,-35.58 813.49,-35.15 808.96,-34.91"/>
<polygon fill="black" stroke="black" points="808.76,-31.41 798.69,-34.71 808.62,-38.41 808.76,-31.41"/>
<text text-anchor="middle" x="845.45" y="-32.5" font-family="Times New Roman,serif" font-size="14.00">take&#45;home</text>
</g>
<!-- &#45;&gt; -->
<g id="edge22" class="edge">
<title>&#45;&gt;</title>
<path fill="none" stroke="black" d="M798.42,-38.55C830.23,-39.92 874.45,-39.14 874.45,-36.2 874.45,-33.57 838.76,-32.67 808.44,-33.51"/>
<polygon fill="black" stroke="black" points="808.29,-30.01 798.42,-33.86 808.54,-37.01 808.29,-30.01"/>
<text text-anchor="middle" x="903.45" y="-32.5" font-family="Times New Roman,serif" font-size="14.00">take&#45;home</text>
</g>
<!-- &#45;&gt; -->
<g id="edge23" class="edge">
<title>&#45;&gt;</title>
<path fill="none" stroke="black" d="M798.43,-39.08C846.53,-41.97 932.45,-41.01 932.45,-36.2 932.45,-31.72 857.56,-30.59 808.47,-32.81"/>
<polygon fill="black" stroke="black" points="808.23,-29.32 798.43,-33.33 808.59,-36.31 808.23,-29.32"/>
<text text-anchor="middle" x="961.45" y="-32.5" font-family="Times New Roman,serif" font-size="14.00">take&#45;home</text>
</g>
<!-- &#45;&gt; -->
<g id="edge24" class="edge">
<title>&#45;&gt;</title>
<path fill="none" stroke="black" d="M798.12,-39.46C859.87,-43.99 990.45,-42.91 990.45,-36.2 990.45,-29.86 873.28,-28.55 808.44,-32.28"/>
<polygon fill="black" stroke="black" points="807.87,-28.8 798.12,-32.95 808.33,-35.79 807.87,-28.8"/>
<text text-anchor="middle" x="1019.45" y="-32.5" font-family="Times New Roman,serif" font-size="14.00">take&#45;home</text>
</g>
<!-- &#45;&gt; -->
<g id="edge25" class="edge">
<title>&#45;&gt;</title>
<path fill="none" stroke="black" d="M797.99,-39.79C871.89,-46.01 1048.45,-44.82 1048.45,-36.2 1048.45,-27.96 886.73,-26.51 808.07,-31.86"/>
<polygon fill="black" stroke="black" points="807.7,-28.38 797.99,-32.62 808.23,-35.36 807.7,-28.38"/>
<text text-anchor="middle" x="1077.45" y="-32.5" font-family="Times New Roman,serif" font-size="14.00">take&#45;home</text>
</g>
<!-- &#45;&gt; -->
<g id="edge26" class="edge">
<title>&#45;&gt;</title>
<path fill="none" stroke="black" d="M797.91,-40.06C882.93,-48.03 1106.45,-46.74 1106.45,-36.2 1106.45,-26.06 899.22,-24.49 807.93,-31.5"/>
<polygon fill="black" stroke="black" points="807.58,-28.02 797.91,-32.35 808.17,-34.99 807.58,-28.02"/>
<text text-anchor="middle" x="1135.45" y="-32.5" font-family="Times New Roman,serif" font-size="14.00">take&#45;home</text>
</g>
<!-- &#45;&gt; -->
<g id="edge27" class="edge">
<title>&#45;&gt;</title>
<path fill="none" stroke="black" d="M797.8,-40.3C893.18,-50.04 1164.45,-48.67 1164.45,-36.2 1164.45,-24.15 910.89,-22.48 807.87,-31.18"/>
<polygon fill="black" stroke="black" points="807.44,-27.7 797.8,-32.11 808.08,-34.68 807.44,-27.7"/>
<text text-anchor="middle" x="1193.45" y="-32.5" font-family="Times New Roman,serif" font-size="14.00">take&#45;home</text>
</g>
<!-- &#45;&gt; -->
<g id="edge28" class="edge">
<title>&#45;&gt;</title>
<path fill="none" stroke="black" d="M797.8,-40.51C903.04,-52.05 1222.45,-50.61 1222.45,-36.2 1222.45,-22.23 922.08,-20.46 807.93,-30.89"/>
<polygon fill="black" stroke="black" points="807.4,-27.42 797.8,-31.9 808.09,-34.39 807.4,-27.42"/>
<text text-anchor="middle" x="1251.45" y="-32.5" font-family="Times New Roman,serif" font-size="14.00">take&#45;home</text>
</g>
<!-- &#45;&gt; -->
<g id="edge29" class="edge">
<title>&#45;&gt;</title>
<path fill="none" stroke="black" d="M797.84,-40.71C912.58,-54.05 1280.45,-52.55 1280.45,-36.2 1280.45,-20.3 932.42,-18.45 807.81,-30.64"/>
<polygon fill="black" stroke="black" points="807.42,-27.16 797.84,-31.7 808.16,-34.12 807.42,-27.16"/>
<text text-anchor="middle" x="1309.45" y="-32.5" font-family="Times New Roman,serif" font-size="14.00">take&#45;home</text>
</g>
<!-- &#45;&gt; -->
<g id="edge30" class="edge">
<title>&#45;&gt;</title>
<path fill="none" stroke="black" d="M797.76,-40.87C921.48,-56.06 1338.45,-54.51 1338.45,-36.2 1338.45,-18.37 942.39,-16.44 807.74,-30.42"/>
<polygon fill="black" stroke="black" points="807.31,-26.94 797.76,-31.54 808.09,-33.9 807.31,-26.94"/>
<text text-anchor="middle" x="1367.45" y="-32.5" font-family="Times New Roman,serif" font-size="14.00">take&#45;home</text>
</g>
<!-- &#45;&gt; -->
<g id="edge31" class="edge">
<title>&#45;&gt;</title>
<path fill="none" stroke="black" d="M797.66,-41.01C930.02,-58.07 1396.45,-56.46 1396.45,-36.2 1396.45,-16.44 952.52,-14.43 807.94,-30.18"/>
<polygon fill="black" stroke="black" points="807.18,-26.75 797.66,-31.4 808,-33.7 807.18,-26.75"/>
<text text-anchor="middle" x="1425.45" y="-32.5" font-family="Times New Roman,serif" font-size="14.00">take&#45;home</text>
</g>
<!-- &#45;&gt; -->
<g id="edge32" class="edge">
<title>&#45;&gt;</title>
<path fill="none" stroke="black" d="M797.64,-41.15C938.5,-60.07 1454.45,-58.42 1454.45,-36.2 1454.45,-14.49 961.41,-12.42 807.69,-30.01"/>
<polygon fill="black" stroke="black" points="807.13,-26.56 797.64,-31.26 807.99,-33.5 807.13,-26.56"/>
<text text-anchor="middle" x="1483.45" y="-32.5" font-family="Times New Roman,serif" font-size="14.00">take&#45;home</text>
</g>
<!-- &#45;&gt; -->
<g id="edge33" class="edge">
<title>&#45;&gt;</title>
<path fill="none" stroke="black" d="M797.79,-41.3C947.19,-62.08 1512.45,-60.38 1512.45,-36.2 1512.45,-12.55 971.22,-10.42 807.99,-29.8"/>
<polygon fill="black" stroke="black" points="807.26,-26.36 797.79,-31.11 808.15,-33.31 807.26,-26.36"/>
<text text-anchor="middle" x="1541.45" y="-32.5" font-family="Times New Roman,serif" font-size="14.00">take&#45;home</text>
</g>
<!-- &#45;&gt; -->
<g id="edge34" class="edge">
<title>&#45;&gt;</title>
<path fill="none" stroke="black" d="M797.7,-41.41C955.11,-64.08 1570.45,-62.35 1570.45,-36.2 1570.45,-10.59 979.5,-8.41 807.7,-29.67"/>
<polygon fill="black" stroke="black" points="807.15,-26.21 797.7,-31 808.08,-33.15 807.15,-26.21"/>
<text text-anchor="middle" x="1599.45" y="-32.5" font-family="Times New Roman,serif" font-size="14.00">take&#45;home</text>
</g>
<!-- &#45;&gt; -->
<g id="edge35" class="edge">
<title>&#45;&gt;</title>
<path fill="none" stroke="black" d="M797.39,-41.48C962.24,-66.09 1628.45,-64.33 1628.45,-36.2 1628.45,-8.62 987.37,-6.4 807.35,-29.55"/>
<polygon fill="black" stroke="black" points="806.82,-26.09 797.39,-30.93 807.78,-33.03 806.82,-26.09"/>
<text text-anchor="middle" x="1657.45" y="-32.5" font-family="Times New Roman,serif" font-size="14.00">take&#45;home</text>
</g>
<!-- &#45;&gt; -->
<g id="edge36" class="edge">
<title>&#45;&gt;</title>
<path fill="none" stroke="black" d="M797.4,-41.58C970.08,-68.09 1686.45,-66.3 1686.45,-36.2 1686.45,-6.67 996.42,-4.39 807.57,-29.38"/>
<polygon fill="black" stroke="black" points="806.81,-25.95 797.4,-30.83 807.8,-32.88 806.81,-25.95"/>
<text text-anchor="middle" x="1715.45" y="-32.5" font-family="Times New Roman,serif" font-size="14.00">take&#45;home</text>
</g>
<!-- &#45;&gt; -->
<g id="edge37" class="edge">
<title>&#45;&gt;</title>
<path fill="none" stroke="black" d="M797.25,-41.66C977.34,-70.1 1744.45,-68.28 1744.45,-36.2 1744.45,-4.69 1004.07,-2.39 807.28,-29.28"/>
<polygon fill="black" stroke="black" points="806.64,-25.84 797.25,-30.75 807.65,-32.77 806.64,-25.84"/>
<text text-anchor="middle" x="1773.45" y="-32.5" font-family="Times New Roman,serif" font-size="14.00">take&#45;home</text>
</g>
<!-- &#45;&gt; -->
<g id="edge38" class="edge">
<title>&#45;&gt;</title>
<path fill="none" stroke="black" d="M797.23,-41.74C984.85,-72.1 1802.45,-70.25 1802.45,-36.2 1802.45,-2.74 1012.55,-0.38 807.39,-29.14"/>
<polygon fill="black" stroke="black" points="806.6,-25.72 797.23,-30.67 807.64,-32.64 806.6,-25.72"/>
<text text-anchor="middle" x="1831.45" y="-32.5" font-family="Times New Roman,serif" font-size="14.00">take&#45;home</text>
</g>
<!-- &#45;&gt; -->
<g id="edge39" class="edge">
<title>&#45;&gt;</title>
<path fill="none" stroke="black" d="M797.38,-41.85C992.76,-74.1 1860.45,-72.22 1860.45,-36.2 1860.45,-0.77 1020.49,1.62 807.34,-29.03"/>
<polygon fill="black" stroke="black" points="806.73,-25.58 797.38,-30.56 807.79,-32.5 806.73,-25.58"/>
<text text-anchor="middle" x="1889.45" y="-32.5" font-family="Times New Roman,serif" font-size="14.00">take&#45;home</text>
</g>
<!-- &#45;&gt; -->
<g id="edge40" class="edge">
<title>&#45;&gt;</title>
<path fill="none" stroke="black" d="M797.11,-41.88C999.33,-76.11 1918.45,-74.21 1918.45,-36.2 1918.45,1.21 1027.83,3.63 807.11,-28.95"/>
<polygon fill="black" stroke="black" points="806.44,-25.51 797.11,-30.53 807.53,-32.42 806.44,-25.51"/>
<text text-anchor="middle" x="1947.45" y="-32.5" font-family="Times New Roman,serif" font-size="14.00">take&#45;home</text>
</g>
<!-- &#45;&gt; -->
<g id="edge41" class="edge">
<title>&#45;&gt;</title>
<path fill="none" stroke="black" d="M797.36,-42C1007.4,-78.11 1976.45,-76.17 1976.45,-36.2 1976.45,3.16 1036.52,5.63 807.41,-28.8"/>
<polygon fill="black" stroke="black" points="806.68,-25.37 797.36,-30.41 807.79,-32.28 806.68,-25.37"/>
<text text-anchor="middle" x="2005.45" y="-32.5" font-family="Times New Roman,serif" font-size="14.00">take&#45;home</text>
</g>
<!-- &#45;&gt; -->
<g id="edge42" class="edge">
<title>&#45;&gt;</title>
<path fill="none" stroke="black" d="M797.2,-42.04C1014.13,-80.11 2034.45,-78.16 2034.45,-36.2 2034.45,5.14 1043.8,7.63 807.24,-28.72"/>
<polygon fill="black" stroke="black" points="806.5,-25.29 797.2,-30.37 807.63,-32.2 806.5,-25.29"/>
<text text-anchor="middle" x="2063.45" y="-32.5" font-family="Times New Roman,serif" font-size="14.00">take&#45;home</text>
</g>
<!-- &#45;&gt; -->
<g id="edge43" class="edge">
<title>&#45;&gt;</title>
<path fill="none" stroke="black" d="M797.28,-42.13C1021.56,-82.11 2092.45,-80.14 2092.45,-36.2 2092.45,7.11 1051.67,9.64 807.31,-28.61"/>
<polygon fill="black" stroke="black" points="806.57,-25.19 797.28,-30.28 807.72,-32.09 806.57,-25.19"/>
<text text-anchor="middle" x="2121.45" y="-32.5" font-family="Times New Roman,serif" font-size="14.00">take&#45;home</text>
</g>
<!-- &#45;&gt; -->
<g id="edge44" class="edge">
<title>&#45;&gt;</title>
<path fill="none" stroke="black" d="M797.29,-42.19C1028.7,-84.11 2150.45,-82.12 2150.45,-36.2 2150.45,9.08 1059.16,11.64 807.28,-28.52"/>
<polygon fill="black" stroke="black" points="806.56,-25.09 797.29,-30.22 807.74,-32 806.56,-25.09"/>
<text text-anchor="middle" x="2179.45" y="-32.5" font-family="Times New Roman,serif" font-size="14.00">take&#45;home</text>
</g>
</g>
</svg>
