<?xml version="1.0" encoding="UTF-8" standalone="no"?>
<!DOCTYPE svg PUBLIC "-//W3C//DTD SVG 1.1//EN"
 "http://www.w3.org/Graphics/SVG/1.1/DTD/svg11.dtd">
<!-- Generated by graphviz version 5.0.1 (20220820.1526)
 -->
<!-- Title: RG Pages: 1 -->
<svg width="1576pt" height="218pt"
 viewBox="0.00 0.00 1575.61 218.00" xmlns="http://www.w3.org/2000/svg" xmlns:xlink="http://www.w3.org/1999/xlink">
<g id="graph0" class="graph" transform="scale(1 1) rotate(0) translate(4 214)">
<title>RG</title>
<polygon fill="white" stroke="none" points="-4,4 -4,-214 1571.61,-214 1571.61,4 -4,4"/>
<!-- svg0 -->
<g id="node1" class="node">
<title>svg0</title>
<g id="a_node1"><a xlink:href="./svg0.svg" xlink:title="svg0">
<ellipse fill="none" stroke="black" cx="776.61" cy="-192" rx="27.9" ry="18"/>
<text text-anchor="middle" x="776.61" y="-188.3" font-family="Times New Roman,serif" font-size="14.00">svg0</text>
</a>
</g>
</g>
<!-- svg1 -->
<g id="node2" class="node">
<title>svg1</title>
<g id="a_node2"><a xlink:href="./svg1.svg" xlink:title="svg1">
<ellipse fill="none" stroke="black" cx="169.61" cy="-105" rx="27.9" ry="18"/>
<text text-anchor="middle" x="169.61" y="-101.3" font-family="Times New Roman,serif" font-size="14.00">svg1</text>
</a>
</g>
</g>
<!-- svg0&#45;&gt;svg1 -->
<g id="edge1" class="edge">
<title>svg0&#45;&gt;svg1</title>
<path fill="none" stroke="black" d="M748.51,-190.79C613.26,-189.67 34.66,-183.26 8.61,-156 -28.97,-116.67 72.86,-108.09 131.5,-106.35"/>
<polygon fill="black" stroke="black" points="131.64,-109.84 141.55,-106.1 131.47,-102.85 131.64,-109.84"/>
<text text-anchor="middle" x="37.61" y="-144.8" font-family="Times New Roman,serif" font-size="14.00">take&#45;home</text>
</g>
<!-- svg0&#45;&gt;svg1 -->
<g id="edge5" class="edge">
<title>svg0&#45;&gt;svg1</title>
<path fill="none" stroke="black" d="M748.59,-190.64C622.49,-188.88 112.67,-180.27 89.61,-156 72.15,-137.63 105.03,-123.2 133.78,-114.65"/>
<polygon fill="black" stroke="black" points="134.99,-117.95 143.68,-111.88 133.11,-111.21 134.99,-117.95"/>
<text text-anchor="middle" x="118.61" y="-144.8" font-family="Times New Roman,serif" font-size="14.00">take&#45;home</text>
</g>
<!-- svg0&#45;&gt;svg1 -->
<g id="edge9" class="edge">
<title>svg0&#45;&gt;svg1</title>
<path fill="none" stroke="black" d="M748.46,-190.43C631.72,-187.92 190.9,-177.06 170.61,-156 164.85,-150.02 163.26,-141.53 163.52,-133.24"/>
<polygon fill="black" stroke="black" points="167.02,-133.38 164.66,-123.05 160.07,-132.6 167.02,-133.38"/>
<text text-anchor="middle" x="199.61" y="-144.8" font-family="Times New Roman,serif" font-size="14.00">take&#45;home</text>
</g>
<!-- svg0&#45;&gt;svg1 -->
<g id="edge13" class="edge">
<title>svg0&#45;&gt;svg1</title>
<path fill="none" stroke="black" d="M748.69,-190.99C653.89,-190.67 345.08,-187.21 251.61,-156 240.03,-152.14 238.97,-147.45 228.61,-141 218.88,-134.94 208.13,-128.49 198.49,-122.8"/>
<polygon fill="black" stroke="black" points="200.07,-119.67 189.67,-117.62 196.52,-125.7 200.07,-119.67"/>
<text text-anchor="middle" x="280.61" y="-144.8" font-family="Times New Roman,serif" font-size="14.00">take&#45;home</text>
</g>
<!-- svg0&#45;&gt;svg1 -->
<g id="edge17" class="edge">
<title>svg0&#45;&gt;svg1</title>
<path fill="none" stroke="black" d="M748.7,-189.92C665.75,-186.52 421.76,-175.11 344.61,-156 328.18,-151.93 325.65,-146.4 309.61,-141 275.04,-129.35 234.5,-119.63 205.97,-113.41"/>
<polygon fill="black" stroke="black" points="206.54,-109.96 196.03,-111.28 205.08,-116.8 206.54,-109.96"/>
<text text-anchor="middle" x="373.61" y="-144.8" font-family="Times New Roman,serif" font-size="14.00">take&#45;home</text>
</g>
<!-- svg2 -->
<g id="node3" class="node">
<title>svg2</title>
<g id="a_node3"><a xlink:href="./svg2.svg" xlink:title="svg2">
<ellipse fill="none" stroke="black" cx="574.61" cy="-105" rx="27.9" ry="18"/>
<text text-anchor="middle" x="574.61" y="-101.3" font-family="Times New Roman,serif" font-size="14.00">svg2</text>
</a>
</g>
</g>
<!-- svg0&#45;&gt;svg2 -->
<g id="edge2" class="edge">
<title>svg0&#45;&gt;svg2</title>
<path fill="none" stroke="black" d="M748.7,-190.42C667.55,-188.45 436.04,-180.69 413.61,-156 377.13,-115.84 477.9,-107.62 536.28,-106.15"/>
<polygon fill="black" stroke="black" points="536.37,-109.65 546.3,-105.95 536.23,-102.65 536.37,-109.65"/>
<text text-anchor="middle" x="442.61" y="-144.8" font-family="Times New Roman,serif" font-size="14.00">take&#45;home</text>
</g>
<!-- svg0&#45;&gt;svg2 -->
<g id="edge6" class="edge">
<title>svg0&#45;&gt;svg2</title>
<path fill="none" stroke="black" d="M748.49,-189.59C680.45,-185.89 511.27,-174.85 494.61,-156 477.88,-137.06 510.38,-122.79 538.85,-114.44"/>
<polygon fill="black" stroke="black" points="539.95,-117.76 548.66,-111.73 538.09,-111.01 539.95,-117.76"/>
<text text-anchor="middle" x="523.61" y="-144.8" font-family="Times New Roman,serif" font-size="14.00">take&#45;home</text>
</g>
<!-- svg0&#45;&gt;svg2 -->
<g id="edge10" class="edge">
<title>svg0&#45;&gt;svg2</title>
<path fill="none" stroke="black" d="M748.58,-190.34C698.68,-188.52 597.64,-181.67 575.61,-156 570.28,-149.79 568.74,-141.38 568.92,-133.23"/>
<polygon fill="black" stroke="black" points="572.41,-133.52 569.91,-123.23 565.44,-132.83 572.41,-133.52"/>
<text text-anchor="middle" x="604.61" y="-144.8" font-family="Times New Roman,serif" font-size="14.00">take&#45;home</text>
</g>
<!-- svg0&#45;&gt;svg2 -->
<g id="edge14" class="edge">
<title>svg0&#45;&gt;svg2</title>
<path fill="none" stroke="black" d="M750.06,-185.62C725.2,-180.04 687.37,-170.14 656.61,-156 645.52,-150.9 643.97,-147.45 633.61,-141 623.88,-134.94 613.13,-128.49 603.49,-122.8"/>
<polygon fill="black" stroke="black" points="605.07,-119.67 594.67,-117.62 601.52,-125.7 605.07,-119.67"/>
<text text-anchor="middle" x="685.61" y="-144.8" font-family="Times New Roman,serif" font-size="14.00">take&#45;home</text>
</g>
<!-- svg0&#45;&gt;svg2 -->
<g id="edge18" class="edge">
<title>svg0&#45;&gt;svg2</title>
<path fill="none" stroke="black" d="M760.89,-177.01C745.99,-164 724.45,-145.9 714.61,-141 681.95,-124.74 641.15,-115.66 612.03,-110.84"/>
<polygon fill="black" stroke="black" points="612.29,-107.34 601.87,-109.26 611.21,-114.26 612.29,-107.34"/>
<text text-anchor="middle" x="764.61" y="-144.8" font-family="Times New Roman,serif" font-size="14.00">take&#45;home</text>
</g>
<!-- svg3 -->
<g id="node4" class="node">
<title>svg3</title>
<ellipse fill="none" stroke="black" cx="979.61" cy="-105" rx="27.9" ry="18"/>
<text text-anchor="middle" x="979.61" y="-101.3" font-family="Times New Roman,serif" font-size="14.00">svg3</text>
</g>
<!-- svg0&#45;&gt;svg3 -->
<g id="edge3" class="edge">
<title>svg0&#45;&gt;svg3</title>
<path fill="none" stroke="black" d="M785.98,-175.03C793.41,-163.79 804.83,-149.32 818.61,-141 856.45,-118.16 907.26,-110.14 941.61,-107.37"/>
<polygon fill="black" stroke="black" points="941.97,-110.85 951.7,-106.67 941.48,-103.87 941.97,-110.85"/>
<text text-anchor="middle" x="847.61" y="-144.8" font-family="Times New Roman,serif" font-size="14.00">take&#45;home</text>
</g>
<!-- svg0&#45;&gt;svg3 -->
<g id="edge7" class="edge">
<title>svg0&#45;&gt;svg3</title>
<path fill="none" stroke="black" d="M801.95,-183.99C822.58,-177.84 852.18,-168.02 876.61,-156 887.56,-150.61 888.87,-146.8 899.61,-141 914.57,-132.92 931.77,-125.21 946.38,-119.09"/>
<polygon fill="black" stroke="black" points="948.11,-122.16 956.02,-115.12 945.44,-115.69 948.11,-122.16"/>
<text text-anchor="middle" x="928.61" y="-144.8" font-family="Times New Roman,serif" font-size="14.00">take&#45;home</text>
</g>
<!-- svg0&#45;&gt;svg3 -->
<g id="edge11" class="edge">
<title>svg0&#45;&gt;svg3</title>
<path fill="none" stroke="black" d="M804.23,-188.78C848.88,-184.69 934.28,-174.62 957.61,-156 964.86,-150.22 969.78,-141.56 973.09,-133.07"/>
<polygon fill="black" stroke="black" points="976.48,-133.95 976.28,-123.36 969.83,-131.76 976.48,-133.95"/>
<text text-anchor="middle" x="998.61" y="-144.8" font-family="Times New Roman,serif" font-size="14.00">take&#45;home</text>
</g>
<!-- svg0&#45;&gt;svg3 -->
<g id="edge15" class="edge">
<title>svg0&#45;&gt;svg3</title>
<path fill="none" stroke="black" d="M804.56,-191.55C864.51,-192.07 1002.39,-189.51 1031.61,-156 1042.58,-143.42 1028.03,-130.38 1011.55,-120.77"/>
<polygon fill="black" stroke="black" points="1012.82,-117.48 1002.36,-115.82 1009.5,-123.64 1012.82,-117.48"/>
<text text-anchor="middle" x="1064.61" y="-144.8" font-family="Times New Roman,serif" font-size="14.00">take&#45;home</text>
</g>
<!-- svg0&#45;&gt;svg3 -->
<g id="edge19" class="edge">
<title>svg0&#45;&gt;svg3</title>
<path fill="none" stroke="black" d="M804.45,-190.05C878.88,-187.22 1078.17,-177.68 1097.61,-156 1123.19,-127.48 1060.97,-114.7 1017.49,-109.4"/>
<polygon fill="black" stroke="black" points="1017.78,-105.91 1007.45,-108.26 1016.99,-112.86 1017.78,-105.91"/>
<text text-anchor="middle" x="1132.61" y="-144.8" font-family="Times New Roman,serif" font-size="14.00">take&#45;home</text>
</g>
<!-- svg4 -->
<g id="node5" class="node">
<title>svg4</title>
<ellipse fill="none" stroke="black" cx="1384.61" cy="-105" rx="27.9" ry="18"/>
<text text-anchor="middle" x="1384.61" y="-101.3" font-family="Times New Roman,serif" font-size="14.00">svg4</text>
</g>
<!-- svg0&#45;&gt;svg4 -->
<g id="edge4" class="edge">
<title>svg0&#45;&gt;svg4</title>
<path fill="none" stroke="black" d="M804.64,-190.05C868.91,-187.52 1031.65,-179.19 1165.61,-156 1191.85,-151.46 1197.71,-147.16 1223.61,-141 1266.3,-130.84 1315.64,-120.29 1348.33,-113.47"/>
<polygon fill="black" stroke="black" points="1349.25,-116.85 1358.33,-111.39 1347.82,-110 1349.25,-116.85"/>
<text text-anchor="middle" x="1252.61" y="-144.8" font-family="Times New Roman,serif" font-size="14.00">take&#45;home</text>
</g>
<!-- svg0&#45;&gt;svg4 -->
<g id="edge8" class="edge">
<title>svg0&#45;&gt;svg4</title>
<path fill="none" stroke="black" d="M804.75,-190.9C897.41,-190.3 1192.14,-186 1281.61,-156 1293.18,-152.12 1293.87,-146.8 1304.61,-141 1319.57,-132.92 1336.77,-125.21 1351.38,-119.09"/>
<polygon fill="black" stroke="black" points="1353.11,-122.16 1361.02,-115.12 1350.44,-115.69 1353.11,-122.16"/>
<text text-anchor="middle" x="1333.61" y="-144.8" font-family="Times New Roman,serif" font-size="14.00">take&#45;home</text>
</g>
<!-- svg0&#45;&gt;svg4 -->
<g id="edge12" class="edge">
<title>svg0&#45;&gt;svg4</title>
<path fill="none" stroke="black" d="M804.63,-191.02C915.08,-190.87 1316.5,-188.09 1362.61,-156 1370.42,-150.57 1375.48,-141.72 1378.76,-132.97"/>
<polygon fill="black" stroke="black" points="1382.13,-133.9 1381.74,-123.31 1375.44,-131.83 1382.13,-133.9"/>
<text text-anchor="middle" x="1404.61" y="-144.8" font-family="Times New Roman,serif" font-size="14.00">take&#45;home</text>
</g>
<!-- svg0&#45;&gt;svg4 -->
<g id="edge16" class="edge">
<title>svg0&#45;&gt;svg4</title>
<path fill="none" stroke="black" d="M804.8,-190.58C928.18,-188.59 1415.52,-179.29 1437.61,-156 1449.47,-143.49 1433.69,-130.14 1416.34,-120.38"/>
<polygon fill="black" stroke="black" points="1417.74,-117.16 1407.26,-115.63 1414.49,-123.36 1417.74,-117.16"/>
<text text-anchor="middle" x="1470.61" y="-144.8" font-family="Times New Roman,serif" font-size="14.00">take&#45;home</text>
</g>
<!-- svg0&#45;&gt;svg4 -->
<g id="edge20" class="edge">
<title>svg0&#45;&gt;svg4</title>
<path fill="none" stroke="black" d="M804.5,-190.72C934.87,-189.28 1479.06,-181.76 1503.61,-156 1530.37,-127.92 1466.52,-114.95 1422.37,-109.5"/>
<polygon fill="black" stroke="black" points="1422.52,-105.99 1412.19,-108.33 1421.72,-112.95 1422.52,-105.99"/>
<text text-anchor="middle" x="1538.61" y="-144.8" font-family="Times New Roman,serif" font-size="14.00">take&#45;home</text>
</g>
<!-- svg5 -->
<g id="node6" class="node">
<title>svg5</title>
<ellipse fill="none" stroke="black" cx="169.61" cy="-18" rx="27.9" ry="18"/>
<text text-anchor="middle" x="169.61" y="-14.3" font-family="Times New Roman,serif" font-size="14.00">svg5</text>
</g>
<!-- svg1&#45;&gt;svg5 -->
<g id="edge21" class="edge">
<title>svg1&#45;&gt;svg5</title>
<path fill="none" stroke="black" d="M169.61,-86.8C169.61,-75.16 169.61,-59.55 169.61,-46.24"/>
<polygon fill="black" stroke="black" points="173.11,-46.18 169.61,-36.18 166.11,-46.18 173.11,-46.18"/>
<text text-anchor="middle" x="198.61" y="-57.8" font-family="Times New Roman,serif" font-size="14.00">take&#45;home</text>
</g>
<!-- svg6 -->
<g id="node7" class="node">
<title>svg6</title>
<ellipse fill="none" stroke="black" cx="574.61" cy="-18" rx="27.9" ry="18"/>
<text text-anchor="middle" x="574.61" y="-14.3" font-family="Times New Roman,serif" font-size="14.00">svg6</text>
</g>
<!-- svg2&#45;&gt;svg6 -->
<g id="edge22" class="edge">
<title>svg2&#45;&gt;svg6</title>
<path fill="none" stroke="black" d="M574.61,-86.8C574.61,-75.16 574.61,-59.55 574.61,-46.24"/>
<polygon fill="black" stroke="black" points="578.11,-46.18 574.61,-36.18 571.11,-46.18 578.11,-46.18"/>
<text text-anchor="middle" x="603.61" y="-57.8" font-family="Times New Roman,serif" font-size="14.00">take&#45;home</text>
</g>
</g>
</svg>
