<?xml version="1.0" encoding="UTF-8" standalone="no"?>
<!DOCTYPE svg PUBLIC "-//W3C//DTD SVG 1.1//EN"
 "http://www.w3.org/Graphics/SVG/1.1/DTD/svg11.dtd">
<!-- Generated by graphviz version 5.0.1 (20220820.1526)
 -->
<!-- Title: RG Pages: 1 -->
<svg width="1265pt" height="218pt"
 viewBox="0.00 0.00 1264.58 218.00" xmlns="http://www.w3.org/2000/svg" xmlns:xlink="http://www.w3.org/1999/xlink">
<g id="graph0" class="graph" transform="scale(1 1) rotate(0) translate(4 214)">
<title>RG</title>
<polygon fill="white" stroke="none" points="-4,4 -4,-214 1260.58,-214 1260.58,4 -4,4"/>
<!-- svg0 -->
<g id="node1" class="node">
<title>svg0</title>
<g id="a_node1"><a xlink:href="./svg0.svg" xlink:title="svg0">
<ellipse fill="none" stroke="black" cx="670.58" cy="-192" rx="27.9" ry="18"/>
<text text-anchor="middle" x="670.58" y="-188.3" font-family="Times New Roman,serif" font-size="14.00">svg0</text>
</a>
</g>
</g>
<!-- svg1 -->
<g id="node2" class="node">
<title>svg1</title>
<g id="a_node2"><a xlink:href="./svg1.svg" xlink:title="svg1">
<ellipse fill="none" stroke="black" cx="164.58" cy="-105" rx="27.9" ry="18"/>
<text text-anchor="middle" x="164.58" y="-101.3" font-family="Times New Roman,serif" font-size="14.00">svg1</text>
</a>
</g>
</g>
<!-- svg0&#45;&gt;svg1 -->
<g id="edge1" class="edge">
<title>svg0&#45;&gt;svg1</title>
<path fill="none" stroke="black" d="M643.74,-186.49C559.17,-172.28 298.18,-128.44 201.29,-112.17"/>
<polygon fill="black" stroke="black" points="201.81,-108.7 191.37,-110.5 200.65,-115.61 201.81,-108.7"/>
<text text-anchor="middle" x="477.58" y="-144.8" font-family="Times New Roman,serif" font-size="14.00">take&#45;home</text>
</g>
<!-- svg2 -->
<g id="node3" class="node">
<title>svg2</title>
<g id="a_node3"><a xlink:href="./svg2.svg" xlink:title="svg2">
<ellipse fill="none" stroke="black" cx="731.58" cy="-105" rx="27.9" ry="18"/>
<text text-anchor="middle" x="731.58" y="-101.3" font-family="Times New Roman,serif" font-size="14.00">svg2</text>
</a>
</g>
</g>
<!-- svg0&#45;&gt;svg2 -->
<g id="edge2" class="edge">
<title>svg0&#45;&gt;svg2</title>
<path fill="none" stroke="black" d="M681.77,-175.41C690.83,-162.79 703.75,-144.79 714.16,-130.28"/>
<polygon fill="black" stroke="black" points="717.27,-131.94 720.26,-121.78 711.59,-127.86 717.27,-131.94"/>
<text text-anchor="middle" x="733.58" y="-144.8" font-family="Times New Roman,serif" font-size="14.00">take&#45;home</text>
</g>
<!-- svg3 -->
<g id="node4" class="node">
<title>svg3</title>
<g id="a_node4"><a xlink:href="./svg3.svg" xlink:title="svg3">
<ellipse fill="none" stroke="black" cx="1055.58" cy="-105" rx="27.9" ry="18"/>
<text text-anchor="middle" x="1055.58" y="-101.3" font-family="Times New Roman,serif" font-size="14.00">svg3</text>
</a>
</g>
</g>
<!-- svg0&#45;&gt;svg3 -->
<g id="edge3" class="edge">
<title>svg0&#45;&gt;svg3</title>
<path fill="none" stroke="black" d="M696.74,-185.22C763.91,-170.4 942.52,-130.96 1019.48,-113.97"/>
<polygon fill="black" stroke="black" points="1020.63,-117.3 1029.64,-111.73 1019.12,-110.47 1020.63,-117.3"/>
<text text-anchor="middle" x="914.58" y="-144.8" font-family="Times New Roman,serif" font-size="14.00">take&#45;home</text>
</g>
<!-- svg4 -->
<g id="node5" class="node">
<title>svg4</title>
<g id="a_node5"><a xlink:href="./svg4.svg" xlink:title="svg4">
<ellipse fill="none" stroke="black" cx="488.58" cy="-105" rx="27.9" ry="18"/>
<text text-anchor="middle" x="488.58" y="-101.3" font-family="Times New Roman,serif" font-size="14.00">svg4</text>
</a>
</g>
</g>
<!-- svg0&#45;&gt;svg4 -->
<g id="edge4" class="edge">
<title>svg0&#45;&gt;svg4</title>
<path fill="none" stroke="black" d="M648.63,-180.75C616.52,-165.75 556.58,-137.76 519.86,-120.61"/>
<polygon fill="black" stroke="black" points="521.16,-117.35 510.61,-116.29 518.19,-123.69 521.16,-117.35"/>
<text text-anchor="middle" x="619.58" y="-144.8" font-family="Times New Roman,serif" font-size="14.00">take&#45;home</text>
</g>
<!-- svg5 -->
<g id="node6" class="node">
<title>svg5</title>
<g id="a_node6"><a xlink:href="./svg5.svg" xlink:title="svg5">
<ellipse fill="none" stroke="black" cx="43.58" cy="-18" rx="27.9" ry="18"/>
<text text-anchor="middle" x="43.58" y="-14.3" font-family="Times New Roman,serif" font-size="14.00">svg5</text>
</a>
</g>
</g>
<!-- svg1&#45;&gt;svg5 -->
<g id="edge5" class="edge">
<title>svg1&#45;&gt;svg5</title>
<path fill="none" stroke="black" d="M136.78,-102.06C95.22,-98.51 20.01,-89.38 3.58,-69 -4.98,-58.38 3.86,-46.46 15.38,-36.92"/>
<polygon fill="black" stroke="black" points="17.71,-39.54 23.6,-30.74 13.5,-33.95 17.71,-39.54"/>
<text text-anchor="middle" x="32.58" y="-57.8" font-family="Times New Roman,serif" font-size="14.00">take&#45;home</text>
</g>
<!-- svg1&#45;&gt;svg5 -->
<g id="edge7" class="edge">
<title>svg1&#45;&gt;svg5</title>
<path fill="none" stroke="black" d="M142.38,-93.96C129.18,-87.57 112.38,-78.7 98.58,-69 86.75,-60.68 74.74,-50.07 64.98,-40.76"/>
<polygon fill="black" stroke="black" points="67.28,-38.12 57.67,-33.65 62.39,-43.13 67.28,-38.12"/>
<text text-anchor="middle" x="127.58" y="-57.8" font-family="Times New Roman,serif" font-size="14.00">take&#45;home</text>
</g>
<!-- svg6 -->
<g id="node7" class="node">
<title>svg6</title>
<g id="a_node7"><a xlink:href="./svg6.svg" xlink:title="svg6">
<ellipse fill="none" stroke="black" cx="285.58" cy="-18" rx="27.9" ry="18"/>
<text text-anchor="middle" x="285.58" y="-14.3" font-family="Times New Roman,serif" font-size="14.00">svg6</text>
</a>
</g>
</g>
<!-- svg1&#45;&gt;svg6 -->
<g id="edge6" class="edge">
<title>svg1&#45;&gt;svg6</title>
<path fill="none" stroke="black" d="M160.23,-87.05C158.57,-76.5 158.51,-63.24 165.58,-54 184.54,-29.25 220,-21.25 247.48,-19.01"/>
<polygon fill="black" stroke="black" points="247.8,-22.49 257.57,-18.4 247.38,-15.51 247.8,-22.49"/>
<text text-anchor="middle" x="194.58" y="-57.8" font-family="Times New Roman,serif" font-size="14.00">take&#45;home</text>
</g>
<!-- svg1&#45;&gt;svg6 -->
<g id="edge8" class="edge">
<title>svg1&#45;&gt;svg6</title>
<path fill="none" stroke="black" d="M185.24,-92.71C196.77,-86.17 211.26,-77.56 223.58,-69 236.65,-59.92 250.5,-48.9 261.78,-39.52"/>
<polygon fill="black" stroke="black" points="264.1,-42.15 269.5,-33.03 259.6,-36.79 264.1,-42.15"/>
<text text-anchor="middle" x="272.58" y="-57.8" font-family="Times New Roman,serif" font-size="14.00">take&#45;home</text>
</g>
<!-- svg7 -->
<g id="node8" class="node">
<title>svg7</title>
<g id="a_node8"><a xlink:href="./svg7.svg" xlink:title="svg7">
<ellipse fill="none" stroke="black" cx="933.58" cy="-18" rx="27.9" ry="18"/>
<text text-anchor="middle" x="933.58" y="-14.3" font-family="Times New Roman,serif" font-size="14.00">svg7</text>
</a>
</g>
</g>
<!-- svg2&#45;&gt;svg7 -->
<g id="edge9" class="edge">
<title>svg2&#45;&gt;svg7</title>
<path fill="none" stroke="black" d="M749.71,-91.02C765.84,-79.94 790.4,-64.23 813.58,-54 840.68,-42.04 873,-32.88 897.27,-26.94"/>
<polygon fill="black" stroke="black" points="898.22,-30.31 907.13,-24.59 896.6,-23.5 898.22,-30.31"/>
<text text-anchor="middle" x="842.58" y="-57.8" font-family="Times New Roman,serif" font-size="14.00">take&#45;home</text>
</g>
<!-- svg2&#45;&gt;svg7 -->
<g id="edge11" class="edge">
<title>svg2&#45;&gt;svg7</title>
<path fill="none" stroke="black" d="M758.85,-100.74C787.98,-96.47 834.91,-87.25 871.58,-69 886.13,-61.76 900.38,-50.64 911.55,-40.72"/>
<polygon fill="black" stroke="black" points="914.1,-43.12 919.09,-33.78 909.36,-37.97 914.1,-43.12"/>
<text text-anchor="middle" x="922.58" y="-57.8" font-family="Times New Roman,serif" font-size="14.00">take&#45;home</text>
</g>
<!-- svg8 -->
<g id="node9" class="node">
<title>svg8</title>
<g id="a_node9"><a xlink:href="./svg8.svg" xlink:title="svg8">
<ellipse fill="none" stroke="black" cx="690.58" cy="-18" rx="27.9" ry="18"/>
<text text-anchor="middle" x="690.58" y="-14.3" font-family="Times New Roman,serif" font-size="14.00">svg8</text>
</a>
</g>
</g>
<!-- svg2&#45;&gt;svg8 -->
<g id="edge10" class="edge">
<title>svg2&#45;&gt;svg8</title>
<path fill="none" stroke="black" d="M704.74,-99.99C686.36,-95.69 663.28,-86.89 651.58,-69 644.41,-58.03 652.35,-46.44 662.89,-37.19"/>
<polygon fill="black" stroke="black" points="665.17,-39.85 670.85,-30.91 660.84,-34.36 665.17,-39.85"/>
<text text-anchor="middle" x="680.58" y="-57.8" font-family="Times New Roman,serif" font-size="14.00">take&#45;home</text>
</g>
<!-- svg2&#45;&gt;svg8 -->
<g id="edge12" class="edge">
<title>svg2&#45;&gt;svg8</title>
<path fill="none" stroke="black" d="M724.59,-87.17C720.43,-77.4 714.93,-64.9 709.58,-54 708.01,-50.8 706.31,-47.47 704.58,-44.19"/>
<polygon fill="black" stroke="black" points="707.58,-42.38 699.76,-35.24 701.42,-45.7 707.58,-42.38"/>
<text text-anchor="middle" x="745.58" y="-57.8" font-family="Times New Roman,serif" font-size="14.00">take&#45;home</text>
</g>
<!-- svg3&#45;&gt;svg7 -->
<g id="edge14" class="edge">
<title>svg3&#45;&gt;svg7</title>
<path fill="none" stroke="black" d="M1030.58,-96.41C1013.96,-90.59 992.21,-81.44 975.58,-69 966.09,-61.9 957.34,-52.25 950.32,-43.33"/>
<polygon fill="black" stroke="black" points="952.95,-41 944.14,-35.1 947.35,-45.2 952.95,-41"/>
<text text-anchor="middle" x="1004.58" y="-57.8" font-family="Times New Roman,serif" font-size="14.00">take&#45;home</text>
</g>
<!-- svg3&#45;&gt;svg7 -->
<g id="edge16" class="edge">
<title>svg3&#45;&gt;svg7</title>
<path fill="none" stroke="black" d="M1051.85,-87.11C1048.67,-76.32 1043.05,-62.76 1033.58,-54 1016.37,-38.08 991.51,-29.34 970.88,-24.57"/>
<polygon fill="black" stroke="black" points="971.35,-21.09 960.85,-22.48 969.92,-27.94 971.35,-21.09"/>
<text text-anchor="middle" x="1072.58" y="-57.8" font-family="Times New Roman,serif" font-size="14.00">take&#45;home</text>
</g>
<!-- svg9 -->
<g id="node10" class="node">
<title>svg9</title>
<g id="a_node10"><a xlink:href="./svg9.svg" xlink:title="svg9">
<ellipse fill="none" stroke="black" cx="1176.58" cy="-18" rx="27.9" ry="18"/>
<text text-anchor="middle" x="1176.58" y="-14.3" font-family="Times New Roman,serif" font-size="14.00">svg9</text>
</a>
</g>
</g>
<!-- svg3&#45;&gt;svg9 -->
<g id="edge13" class="edge">
<title>svg3&#45;&gt;svg9</title>
<path fill="none" stroke="black" d="M1076.24,-92.71C1087.77,-86.17 1102.26,-77.56 1114.58,-69 1127.65,-59.92 1141.5,-48.9 1152.78,-39.52"/>
<polygon fill="black" stroke="black" points="1155.1,-42.15 1160.5,-33.03 1150.6,-36.79 1155.1,-42.15"/>
<text text-anchor="middle" x="1162.58" y="-57.8" font-family="Times New Roman,serif" font-size="14.00">take&#45;home</text>
</g>
<!-- svg3&#45;&gt;svg9 -->
<g id="edge15" class="edge">
<title>svg3&#45;&gt;svg9</title>
<path fill="none" stroke="black" d="M1083.14,-101.09C1119.89,-96.57 1181.9,-86.53 1195.58,-69 1201.52,-61.39 1199.51,-51.73 1195.02,-42.92"/>
<polygon fill="black" stroke="black" points="1197.88,-40.89 1189.68,-34.18 1191.91,-44.54 1197.88,-40.89"/>
<text text-anchor="middle" x="1227.58" y="-57.8" font-family="Times New Roman,serif" font-size="14.00">take&#45;home</text>
</g>
<!-- svg4&#45;&gt;svg6 -->
<g id="edge17" class="edge">
<title>svg4&#45;&gt;svg6</title>
<path fill="none" stroke="black" d="M460.67,-103.33C426.89,-101.36 369.34,-94.2 327.58,-69 317.03,-62.63 307.87,-52.65 300.82,-43.28"/>
<polygon fill="black" stroke="black" points="303.58,-41.12 294.95,-34.97 297.85,-45.16 303.58,-41.12"/>
<text text-anchor="middle" x="356.58" y="-57.8" font-family="Times New Roman,serif" font-size="14.00">take&#45;home</text>
</g>
<!-- svg4&#45;&gt;svg6 -->
<g id="edge19" class="edge">
<title>svg4&#45;&gt;svg6</title>
<path fill="none" stroke="black" d="M467.61,-92.93C447.02,-82.28 414.58,-66.07 385.58,-54 364.04,-45.03 339.28,-36.36 319.79,-29.89"/>
<polygon fill="black" stroke="black" points="320.72,-26.51 310.13,-26.71 318.54,-33.16 320.72,-26.51"/>
<text text-anchor="middle" x="446.58" y="-57.8" font-family="Times New Roman,serif" font-size="14.00">take&#45;home</text>
</g>
<!-- svg10 -->
<g id="node11" class="node">
<title>svg10</title>
<g id="a_node11"><a xlink:href="./svg10.svg" xlink:title="svg10">
<ellipse fill="none" stroke="black" cx="528.58" cy="-18" rx="32.49" ry="18"/>
<text text-anchor="middle" x="528.58" y="-14.3" font-family="Times New Roman,serif" font-size="14.00">svg10</text>
</a>
</g>
</g>
<!-- svg4&#45;&gt;svg10 -->
<g id="edge18" class="edge">
<title>svg4&#45;&gt;svg10</title>
<path fill="none" stroke="black" d="M485.65,-87.04C484.7,-76.99 484.88,-64.26 489.58,-54 492.11,-48.49 495.96,-43.48 500.28,-39.08"/>
<polygon fill="black" stroke="black" points="502.75,-41.56 507.83,-32.27 498.06,-36.36 502.75,-41.56"/>
<text text-anchor="middle" x="518.58" y="-57.8" font-family="Times New Roman,serif" font-size="14.00">take&#45;home</text>
</g>
<!-- svg4&#45;&gt;svg10 -->
<g id="edge20" class="edge">
<title>svg4&#45;&gt;svg10</title>
<path fill="none" stroke="black" d="M513.03,-96.18C525.75,-90.72 540.16,-82.04 547.58,-69 552.06,-61.14 550.38,-52.03 546.58,-43.75"/>
<polygon fill="black" stroke="black" points="549.55,-41.89 541.61,-34.88 543.44,-45.31 549.55,-41.89"/>
<text text-anchor="middle" x="579.58" y="-57.8" font-family="Times New Roman,serif" font-size="14.00">take&#45;home</text>
</g>
</g>
</svg>
