<?xml version="1.0" encoding="UTF-8" standalone="no"?>
<!DOCTYPE svg PUBLIC "-//W3C//DTD SVG 1.1//EN"
 "http://www.w3.org/Graphics/SVG/1.1/DTD/svg11.dtd">
<!-- Generated by graphviz version 5.0.0 (20220707.2145)
 -->
<!-- Title: G Pages: 1 -->
<svg width="308pt" height="222pt"
 viewBox="0.00 0.00 308.29 221.60" xmlns="http://www.w3.org/2000/svg" xmlns:xlink="http://www.w3.org/1999/xlink">
<g id="graph0" class="graph" transform="scale(1 1) rotate(0) translate(4 217.6)">
<title>G</title>
<polygon fill="white" stroke="transparent" points="-4,4 -4,-217.6 304.29,-217.6 304.29,4 -4,4"/>
<!-- vendor&#45;available -->
<g id="node1" class="node">
<title>vendor&#45;available</title>
<ellipse fill="none" stroke="black" cx="42.54" cy="-195.6" rx="41.77" ry="18"/>
<text text-anchor="middle" x="42.54" y="-191.4" font-family="Times,serif" font-size="14.00"> &#160;V1 V2</text>
</g>
<!-- take&#45;home -->
<g id="node5" class="node">
<title>take&#45;home</title>
<polygon fill="none" stroke="black" points="159.12,-124.8 83.96,-124.8 83.96,-88.8 159.12,-88.8 159.12,-124.8"/>
<text text-anchor="middle" x="121.54" y="-102.6" font-family="Times,serif" font-size="14.00">take&#45;home</text>
</g>
<!-- vendor&#45;available&#45;&gt;take&#45;home -->
<g id="edge1" class="edge">
<title>vendor&#45;available&#45;&gt;take&#45;home</title>
<path fill="none" stroke="black" d="M57.03,-178.68C68.76,-165.8 85.48,-147.42 98.96,-132.61"/>
<polygon fill="black" stroke="black" points="101.92,-134.56 106.06,-124.81 96.74,-129.85 101.92,-134.56"/>
<text text-anchor="middle" x="93.04" y="-147" font-family="Times,serif" font-size="14.00">y</text>
</g>
<!-- client&#45;with&#45;item -->
<g id="node2" class="node">
<title>client&#45;with&#45;item</title>
<ellipse fill="none" stroke="black" cx="201.54" cy="-195.6" rx="98.99" ry="18"/>
<text text-anchor="middle" x="201.54" y="-191.4" font-family="Times,serif" font-size="14.00"> &#160;Alice shirt Bob shoes</text>
</g>
<!-- client&#45;with&#45;item&#45;&gt;take&#45;home -->
<g id="edge2" class="edge">
<title>client&#45;with&#45;item&#45;&gt;take&#45;home</title>
<path fill="none" stroke="black" d="M185.74,-177.45C173.9,-164.61 157.54,-146.86 144.3,-132.49"/>
<polygon fill="black" stroke="black" points="146.66,-129.89 137.31,-124.91 141.52,-134.64 146.66,-129.89"/>
<text text-anchor="middle" x="184.31" y="-147" font-family="Times,serif" font-size="14.00">(x, z)</text>
</g>
<!-- vendor&#45;with&#45;item -->
<g id="node3" class="node">
<title>vendor&#45;with&#45;item</title>
<ellipse fill="none" stroke="black" cx="51.54" cy="-18" rx="51.58" ry="18"/>
<text text-anchor="middle" x="51.54" y="-13.8" font-family="Times,serif" font-size="14.00"> &#160;V1 shoes</text>
</g>
<!-- client&#45;with&#45;money -->
<g id="node4" class="node">
<title>client&#45;with&#45;money</title>
<ellipse fill="none" stroke="black" cx="192.54" cy="-18" rx="71.28" ry="18"/>
<text text-anchor="middle" x="192.54" y="-13.8" font-family="Times,serif" font-size="14.00"> &#160;Bob 110&#45;EUR</text>
</g>
<!-- take&#45;home&#45;&gt;vendor&#45;with&#45;item -->
<g id="edge4" class="edge">
<title>take&#45;home&#45;&gt;vendor&#45;with&#45;item</title>
<path fill="none" stroke="black" d="M107.71,-88.65C97.32,-75.77 82.94,-57.93 71.33,-43.54"/>
<polygon fill="black" stroke="black" points="73.87,-41.11 64.87,-35.52 68.42,-45.51 73.87,-41.11"/>
<text text-anchor="middle" x="108.31" y="-58.2" font-family="Times,serif" font-size="14.00">(y, z)</text>
</g>
<!-- take&#45;home&#45;&gt;client&#45;with&#45;money -->
<g id="edge3" class="edge">
<title>take&#45;home&#45;&gt;client&#45;with&#45;money</title>
<path fill="none" stroke="black" d="M135.57,-88.65C146.04,-75.85 160.51,-58.16 172.24,-43.82"/>
<polygon fill="black" stroke="black" points="175.16,-45.77 178.78,-35.82 169.74,-41.34 175.16,-45.77"/>
<text text-anchor="middle" x="180.65" y="-58.2" font-family="Times,serif" font-size="14.00">(x, m)</text>
</g>
</g>
</svg>
