<?xml version="1.0" encoding="UTF-8" standalone="no"?>
<!DOCTYPE svg PUBLIC "-//W3C//DTD SVG 1.1//EN"
 "http://www.w3.org/Graphics/SVG/1.1/DTD/svg11.dtd">
<!-- Generated by graphviz version 5.0.0 (20220707.2145)
 -->
<!-- Title: G Pages: 1 -->
<svg width="456pt" height="222pt"
 viewBox="0.00 0.00 455.66 221.60" xmlns="http://www.w3.org/2000/svg" xmlns:xlink="http://www.w3.org/1999/xlink">
<g id="graph0" class="graph" transform="scale(1 1) rotate(0) translate(4 217.6)">
<title>G</title>
<polygon fill="white" stroke="transparent" points="-4,4 -4,-217.6 451.66,-217.6 451.66,4 -4,4"/>
<!-- vendor&#45;available -->
<g id="node1" class="node">
<title>vendor&#45;available</title>
<ellipse fill="none" stroke="black" cx="122.34" cy="-195.6" rx="41.77" ry="18"/>
<text text-anchor="middle" x="122.34" y="-191.4" font-family="Times,serif" font-size="14.00"> &#160;V1 V2</text>
</g>
<!-- take&#45;home -->
<g id="node5" class="node">
<title>take&#45;home</title>
<polygon fill="none" stroke="black" points="238.92,-124.8 163.76,-124.8 163.76,-88.8 238.92,-88.8 238.92,-124.8"/>
<text text-anchor="middle" x="201.34" y="-102.6" font-family="Times,serif" font-size="14.00">take&#45;home</text>
</g>
<!-- vendor&#45;available&#45;&gt;take&#45;home -->
<g id="edge1" class="edge">
<title>vendor&#45;available&#45;&gt;take&#45;home</title>
<path fill="none" stroke="black" d="M136.83,-178.68C148.56,-165.8 165.28,-147.42 178.76,-132.61"/>
<polygon fill="black" stroke="black" points="181.72,-134.56 185.86,-124.81 176.54,-129.85 181.72,-134.56"/>
<text text-anchor="middle" x="172.84" y="-147" font-family="Times,serif" font-size="14.00">y</text>
</g>
<!-- client&#45;with&#45;item -->
<g id="node2" class="node">
<title>client&#45;with&#45;item</title>
<ellipse fill="none" stroke="black" cx="281.34" cy="-195.6" rx="98.99" ry="18"/>
<text text-anchor="middle" x="281.34" y="-191.4" font-family="Times,serif" font-size="14.00"> &#160;Alice shirt Bob shoes</text>
</g>
<!-- client&#45;with&#45;item&#45;&gt;take&#45;home -->
<g id="edge2" class="edge">
<title>client&#45;with&#45;item&#45;&gt;take&#45;home</title>
<path fill="none" stroke="black" d="M265.53,-177.45C253.7,-164.61 237.34,-146.86 224.1,-132.49"/>
<polygon fill="black" stroke="black" points="226.46,-129.89 217.11,-124.91 221.32,-134.64 226.46,-129.89"/>
<text text-anchor="middle" x="264.11" y="-147" font-family="Times,serif" font-size="14.00">(x, z)</text>
</g>
<!-- vendor&#45;with&#45;item -->
<g id="node3" class="node">
<title>vendor&#45;with&#45;item</title>
<ellipse fill="none" stroke="black" cx="85.34" cy="-18" rx="85.18" ry="18"/>
<text text-anchor="middle" x="85.34" y="-13.8" font-family="Times,serif" font-size="14.00"> &#160;V1 shirt V1 shoes</text>
</g>
<!-- client&#45;with&#45;money -->
<g id="node4" class="node">
<title>client&#45;with&#45;money</title>
<ellipse fill="none" stroke="black" cx="318.34" cy="-18" rx="129.14" ry="18"/>
<text text-anchor="middle" x="318.34" y="-13.8" font-family="Times,serif" font-size="14.00"> &#160;Alice 50&#45;EUR Bob 110&#45;EUR</text>
</g>
<!-- take&#45;home&#45;&gt;vendor&#45;with&#45;item -->
<g id="edge4" class="edge">
<title>take&#45;home&#45;&gt;vendor&#45;with&#45;item</title>
<path fill="none" stroke="black" d="M178.42,-88.65C160.4,-75.16 135.13,-56.26 115.47,-41.54"/>
<polygon fill="black" stroke="black" points="117.53,-38.71 107.42,-35.52 113.33,-44.32 117.53,-38.71"/>
<text text-anchor="middle" x="169.11" y="-58.2" font-family="Times,serif" font-size="14.00">(y, z)</text>
</g>
<!-- take&#45;home&#45;&gt;client&#45;with&#45;money -->
<g id="edge3" class="edge">
<title>take&#45;home&#45;&gt;client&#45;with&#45;money</title>
<path fill="none" stroke="black" d="M224.46,-88.65C242.52,-75.25 267.79,-56.5 287.57,-41.83"/>
<polygon fill="black" stroke="black" points="289.73,-44.59 295.67,-35.82 285.55,-38.97 289.73,-44.59"/>
<text text-anchor="middle" x="286.45" y="-58.2" font-family="Times,serif" font-size="14.00">(x, m)</text>
</g>
</g>
</svg>
