<?xml version="1.0" encoding="UTF-8" standalone="no"?>
<!DOCTYPE svg PUBLIC "-//W3C//DTD SVG 1.1//EN"
 "http://www.w3.org/Graphics/SVG/1.1/DTD/svg11.dtd">
<!-- Generated by graphviz version 5.0.0 (20220707.2145)
 -->
<!-- Title: G Pages: 1 -->
<svg width="638pt" height="222pt"
 viewBox="0.00 0.00 638.39 221.60" xmlns="http://www.w3.org/2000/svg" xmlns:xlink="http://www.w3.org/1999/xlink">
<g id="graph0" class="graph" transform="scale(1 1) rotate(0) translate(4 217.6)">
<title>G</title>
<polygon fill="white" stroke="transparent" points="-4,4 -4,-217.6 634.39,-217.6 634.39,4 -4,4"/>
<!-- vendor&#45;available -->
<g id="node1" class="node">
<title>vendor&#45;available</title>
<ellipse fill="none" stroke="black" cx="202.14" cy="-195.6" rx="41.77" ry="18"/>
<text text-anchor="middle" x="202.14" y="-191.4" font-family="Times,serif" font-size="14.00"> &#160;V1 V2</text>
</g>
<!-- take&#45;home -->
<g id="node5" class="node">
<title>take&#45;home</title>
<polygon fill="none" stroke="black" points="318.72,-124.8 243.56,-124.8 243.56,-88.8 318.72,-88.8 318.72,-124.8"/>
<text text-anchor="middle" x="281.14" y="-102.6" font-family="Times,serif" font-size="14.00">take&#45;home</text>
</g>
<!-- vendor&#45;available&#45;&gt;take&#45;home -->
<g id="edge1" class="edge">
<title>vendor&#45;available&#45;&gt;take&#45;home</title>
<path fill="none" stroke="black" d="M216.63,-178.68C228.36,-165.8 245.08,-147.42 258.56,-132.61"/>
<polygon fill="black" stroke="black" points="261.52,-134.56 265.66,-124.81 256.34,-129.85 261.52,-134.56"/>
<text text-anchor="middle" x="252.64" y="-147" font-family="Times,serif" font-size="14.00">y</text>
</g>
<!-- client&#45;with&#45;item -->
<g id="node2" class="node">
<title>client&#45;with&#45;item</title>
<ellipse fill="none" stroke="black" cx="361.14" cy="-195.6" rx="98.99" ry="18"/>
<text text-anchor="middle" x="361.14" y="-191.4" font-family="Times,serif" font-size="14.00"> &#160;Alice shirt Bob shoes</text>
</g>
<!-- client&#45;with&#45;item&#45;&gt;take&#45;home -->
<g id="edge2" class="edge">
<title>client&#45;with&#45;item&#45;&gt;take&#45;home</title>
<path fill="none" stroke="black" d="M345.33,-177.45C333.5,-164.61 317.14,-146.86 303.9,-132.49"/>
<polygon fill="black" stroke="black" points="306.26,-129.89 296.91,-124.91 301.12,-134.64 306.26,-129.89"/>
<text text-anchor="middle" x="343.91" y="-147" font-family="Times,serif" font-size="14.00">(x, z)</text>
</g>
<!-- vendor&#45;with&#45;item -->
<g id="node3" class="node">
<title>vendor&#45;with&#45;item</title>
<ellipse fill="none" stroke="black" cx="119.14" cy="-18" rx="119.28" ry="18"/>
<text text-anchor="middle" x="119.14" y="-13.8" font-family="Times,serif" font-size="14.00"> &#160;V1 shirt V1 shoes V2 shirt</text>
</g>
<!-- client&#45;with&#45;money -->
<g id="node4" class="node">
<title>client&#45;with&#45;money</title>
<ellipse fill="none" stroke="black" cx="443.14" cy="-18" rx="187.5" ry="18"/>
<text text-anchor="middle" x="443.14" y="-13.8" font-family="Times,serif" font-size="14.00"> &#160;Alice 50&#45;EUR Bob 110&#45;EUR Alice 50&#45;EUR</text>
</g>
<!-- take&#45;home&#45;&gt;vendor&#45;with&#45;item -->
<g id="edge4" class="edge">
<title>take&#45;home&#45;&gt;vendor&#45;with&#45;item</title>
<path fill="none" stroke="black" d="M249.13,-88.65C223.29,-74.8 186.78,-55.24 159.03,-40.37"/>
<polygon fill="black" stroke="black" points="160.45,-37.16 149.98,-35.52 157.14,-43.33 160.45,-37.16"/>
<text text-anchor="middle" x="229.91" y="-58.2" font-family="Times,serif" font-size="14.00">(y, z)</text>
</g>
<!-- take&#45;home&#45;&gt;client&#45;with&#45;money -->
<g id="edge3" class="edge">
<title>take&#45;home&#45;&gt;client&#45;with&#45;money</title>
<path fill="none" stroke="black" d="M313.15,-88.65C338.83,-74.89 375.04,-55.49 402.72,-40.66"/>
<polygon fill="black" stroke="black" points="404.59,-43.63 411.75,-35.82 401.28,-37.46 404.59,-43.63"/>
<text text-anchor="middle" x="393.25" y="-58.2" font-family="Times,serif" font-size="14.00">(x, m)</text>
</g>
</g>
</svg>
