<?xml version="1.0" encoding="UTF-8" standalone="no"?>
<!DOCTYPE svg PUBLIC "-//W3C//DTD SVG 1.1//EN"
 "http://www.w3.org/Graphics/SVG/1.1/DTD/svg11.dtd">
<!-- Generated by graphviz version 5.0.0 (20220707.2145)
 -->
<!-- Title: G Pages: 1 -->
<svg width="830pt" height="222pt"
 viewBox="0.00 0.00 830.42 221.60" xmlns="http://www.w3.org/2000/svg" xmlns:xlink="http://www.w3.org/1999/xlink">
<g id="graph0" class="graph" transform="scale(1 1) rotate(0) translate(4 217.6)">
<title>G</title>
<polygon fill="white" stroke="transparent" points="-4,4 -4,-217.6 826.42,-217.6 826.42,4 -4,4"/>
<!-- vendor&#45;available -->
<g id="node1" class="node">
<title>vendor&#45;available</title>
<ellipse fill="none" stroke="black" cx="288.23" cy="-195.6" rx="41.77" ry="18"/>
<text text-anchor="middle" x="288.23" y="-191.4" font-family="Times,serif" font-size="14.00"> &#160;V1 V2</text>
</g>
<!-- take&#45;home -->
<g id="node5" class="node">
<title>take&#45;home</title>
<polygon fill="none" stroke="black" points="404.81,-124.8 329.65,-124.8 329.65,-88.8 404.81,-88.8 404.81,-124.8"/>
<text text-anchor="middle" x="367.23" y="-102.6" font-family="Times,serif" font-size="14.00">take&#45;home</text>
</g>
<!-- vendor&#45;available&#45;&gt;take&#45;home -->
<g id="edge1" class="edge">
<title>vendor&#45;available&#45;&gt;take&#45;home</title>
<path fill="none" stroke="black" d="M302.72,-178.68C314.45,-165.8 331.17,-147.42 344.65,-132.61"/>
<polygon fill="black" stroke="black" points="347.61,-134.56 351.75,-124.81 342.43,-129.85 347.61,-134.56"/>
<text text-anchor="middle" x="338.73" y="-147" font-family="Times,serif" font-size="14.00">y</text>
</g>
<!-- client&#45;with&#45;item -->
<g id="node2" class="node">
<title>client&#45;with&#45;item</title>
<ellipse fill="none" stroke="black" cx="447.23" cy="-195.6" rx="98.99" ry="18"/>
<text text-anchor="middle" x="447.23" y="-191.4" font-family="Times,serif" font-size="14.00"> &#160;Alice shirt Bob shoes</text>
</g>
<!-- client&#45;with&#45;item&#45;&gt;take&#45;home -->
<g id="edge2" class="edge">
<title>client&#45;with&#45;item&#45;&gt;take&#45;home</title>
<path fill="none" stroke="black" d="M431.42,-177.45C419.59,-164.61 403.23,-146.86 389.99,-132.49"/>
<polygon fill="black" stroke="black" points="392.35,-129.89 383,-124.91 387.21,-134.64 392.35,-129.89"/>
<text text-anchor="middle" x="430" y="-147" font-family="Times,serif" font-size="14.00">(x, z)</text>
</g>
<!-- vendor&#45;with&#45;item -->
<g id="node3" class="node">
<title>vendor&#45;with&#45;item</title>
<ellipse fill="none" stroke="black" cx="157.23" cy="-18" rx="157.46" ry="18"/>
<text text-anchor="middle" x="157.23" y="-13.8" font-family="Times,serif" font-size="14.00"> &#160;V1 shirt V1 shoes V2 shirt V2 shoes</text>
</g>
<!-- client&#45;with&#45;money -->
<g id="node4" class="node">
<title>client&#45;with&#45;money</title>
<ellipse fill="none" stroke="black" cx="577.23" cy="-18" rx="245.38" ry="18"/>
<text text-anchor="middle" x="577.23" y="-13.8" font-family="Times,serif" font-size="14.00"> &#160;Alice 50&#45;EUR Bob 110&#45;EUR Alice 50&#45;EUR Bob 110&#45;EUR</text>
</g>
<!-- take&#45;home&#45;&gt;vendor&#45;with&#45;item -->
<g id="edge4" class="edge">
<title>take&#45;home&#45;&gt;vendor&#45;with&#45;item</title>
<path fill="none" stroke="black" d="M329.69,-90.28C295.21,-76.03 243.91,-54.83 206.22,-39.25"/>
<polygon fill="black" stroke="black" points="207.53,-36 196.95,-35.42 204.85,-42.47 207.53,-36"/>
<text text-anchor="middle" x="296" y="-58.2" font-family="Times,serif" font-size="14.00">(y, z)</text>
</g>
<!-- take&#45;home&#45;&gt;client&#45;with&#45;money -->
<g id="edge3" class="edge">
<title>take&#45;home&#45;&gt;client&#45;with&#45;money</title>
<path fill="none" stroke="black" d="M404.77,-90.28C438.92,-76.17 489.58,-55.23 527.17,-39.69"/>
<polygon fill="black" stroke="black" points="528.52,-42.92 536.42,-35.87 525.85,-36.45 528.52,-42.92"/>
<text text-anchor="middle" x="507.34" y="-58.2" font-family="Times,serif" font-size="14.00">(x, m)</text>
</g>
</g>
</svg>
