<?xml version="1.0" encoding="UTF-8" standalone="no"?>
<!DOCTYPE svg PUBLIC "-//W3C//DTD SVG 1.1//EN"
 "http://www.w3.org/Graphics/SVG/1.1/DTD/svg11.dtd">
<!-- Generated by graphviz version 5.0.0 (20220707.2145)
 -->
<!-- Title: G Pages: 1 -->
<svg width="464pt" height="222pt"
 viewBox="0.00 0.00 464.49 221.60" xmlns="http://www.w3.org/2000/svg" xmlns:xlink="http://www.w3.org/1999/xlink">
<g id="graph0" class="graph" transform="scale(1 1) rotate(0) translate(4 217.6)">
<title>G</title>
<polygon fill="white" stroke="transparent" points="-4,4 -4,-217.6 460.49,-217.6 460.49,4 -4,4"/>
<!-- vendor&#45;available -->
<g id="node1" class="node">
<title>vendor&#45;available</title>
<ellipse fill="none" stroke="black" cx="167.34" cy="-195.6" rx="27" ry="18"/>
<text text-anchor="middle" x="167.34" y="-191.4" font-family="Times,serif" font-size="14.00"> </text>
</g>
<!-- take&#45;home -->
<g id="node5" class="node">
<title>take&#45;home</title>
<polygon fill="none" stroke="black" points="240.92,-124.8 165.76,-124.8 165.76,-88.8 240.92,-88.8 240.92,-124.8"/>
<text text-anchor="middle" x="203.34" y="-102.6" font-family="Times,serif" font-size="14.00">take&#45;home</text>
</g>
<!-- vendor&#45;available&#45;&gt;take&#45;home -->
<g id="edge1" class="edge">
<title>vendor&#45;available&#45;&gt;take&#45;home</title>
<path fill="none" stroke="black" d="M174.28,-177.86C179.39,-165.54 186.45,-148.52 192.33,-134.35"/>
<polygon fill="black" stroke="black" points="195.58,-135.66 196.17,-125.08 189.11,-132.97 195.58,-135.66"/>
<text text-anchor="middle" x="192.84" y="-147" font-family="Times,serif" font-size="14.00">y</text>
</g>
<!-- client&#45;with&#45;item -->
<g id="node2" class="node">
<title>client&#45;with&#45;item</title>
<ellipse fill="none" stroke="black" cx="239.34" cy="-195.6" rx="27" ry="18"/>
<text text-anchor="middle" x="239.34" y="-191.4" font-family="Times,serif" font-size="14.00"> </text>
</g>
<!-- client&#45;with&#45;item&#45;&gt;take&#45;home -->
<g id="edge2" class="edge">
<title>client&#45;with&#45;item&#45;&gt;take&#45;home</title>
<path fill="none" stroke="black" d="M232.4,-177.86C227.29,-165.54 220.23,-148.52 214.35,-134.35"/>
<polygon fill="black" stroke="black" points="217.57,-132.97 210.51,-125.08 211.1,-135.66 217.57,-132.97"/>
<text text-anchor="middle" x="239.11" y="-147" font-family="Times,serif" font-size="14.00">(x, z)</text>
</g>
<!-- vendor&#45;with&#45;item -->
<g id="node3" class="node">
<title>vendor&#45;with&#45;item</title>
<ellipse fill="none" stroke="black" cx="85.34" cy="-18" rx="85.18" ry="18"/>
<text text-anchor="middle" x="85.34" y="-13.8" font-family="Times,serif" font-size="14.00"> &#160;V1 shoes V2 shirt</text>
</g>
<!-- client&#45;with&#45;money -->
<g id="node4" class="node">
<title>client&#45;with&#45;money</title>
<ellipse fill="none" stroke="black" cx="322.34" cy="-18" rx="134.3" ry="18"/>
<text text-anchor="middle" x="322.34" y="-13.8" font-family="Times,serif" font-size="14.00"> &#160;Bob 110&#45;EUR Alice 110&#45;EUR</text>
</g>
<!-- take&#45;home&#45;&gt;vendor&#45;with&#45;item -->
<g id="edge4" class="edge">
<title>take&#45;home&#45;&gt;vendor&#45;with&#45;item</title>
<path fill="none" stroke="black" d="M180.03,-88.65C161.69,-75.16 135.99,-56.26 115.99,-41.54"/>
<polygon fill="black" stroke="black" points="117.93,-38.63 107.8,-35.52 113.79,-44.27 117.93,-38.63"/>
<text text-anchor="middle" x="170.11" y="-58.2" font-family="Times,serif" font-size="14.00">(y, z)</text>
</g>
<!-- take&#45;home&#45;&gt;client&#45;with&#45;money -->
<g id="edge3" class="edge">
<title>take&#45;home&#45;&gt;client&#45;with&#45;money</title>
<path fill="none" stroke="black" d="M226.85,-88.65C245.22,-75.25 270.93,-56.5 291.04,-41.83"/>
<polygon fill="black" stroke="black" points="293.27,-44.54 299.28,-35.82 289.14,-38.88 293.27,-44.54"/>
<text text-anchor="middle" x="290.45" y="-58.2" font-family="Times,serif" font-size="14.00">(x, m)</text>
</g>
</g>
</svg>
