<?xml version="1.0" encoding="UTF-8" standalone="no"?>
<!DOCTYPE svg PUBLIC "-//W3C//DTD SVG 1.1//EN"
 "http://www.w3.org/Graphics/SVG/1.1/DTD/svg11.dtd">
<!-- Generated by graphviz version 5.0.0 (20220707.2145)
 -->
<!-- Title: G Pages: 1 -->
<svg width="446pt" height="222pt"
 viewBox="0.00 0.00 445.83 221.60" xmlns="http://www.w3.org/2000/svg" xmlns:xlink="http://www.w3.org/1999/xlink">
<g id="graph0" class="graph" transform="scale(1 1) rotate(0) translate(4 217.6)">
<title>G</title>
<polygon fill="white" stroke="transparent" points="-4,4 -4,-217.6 441.83,-217.6 441.83,4 -4,4"/>
<!-- vendor&#45;available -->
<g id="node1" class="node">
<title>vendor&#45;available</title>
<ellipse fill="none" stroke="black" cx="163.34" cy="-195.6" rx="27" ry="18"/>
<text text-anchor="middle" x="163.34" y="-191.4" font-family="Times,serif" font-size="14.00"> </text>
</g>
<!-- take&#45;home -->
<g id="node5" class="node">
<title>take&#45;home</title>
<polygon fill="none" stroke="black" points="236.92,-124.8 161.76,-124.8 161.76,-88.8 236.92,-88.8 236.92,-124.8"/>
<text text-anchor="middle" x="199.34" y="-102.6" font-family="Times,serif" font-size="14.00">take&#45;home</text>
</g>
<!-- vendor&#45;available&#45;&gt;take&#45;home -->
<g id="edge1" class="edge">
<title>vendor&#45;available&#45;&gt;take&#45;home</title>
<path fill="none" stroke="black" d="M170.28,-177.86C175.39,-165.54 182.45,-148.52 188.33,-134.35"/>
<polygon fill="black" stroke="black" points="191.58,-135.66 192.17,-125.08 185.11,-132.97 191.58,-135.66"/>
<text text-anchor="middle" x="188.84" y="-147" font-family="Times,serif" font-size="14.00">y</text>
</g>
<!-- client&#45;with&#45;item -->
<g id="node2" class="node">
<title>client&#45;with&#45;item</title>
<ellipse fill="none" stroke="black" cx="235.34" cy="-195.6" rx="27" ry="18"/>
<text text-anchor="middle" x="235.34" y="-191.4" font-family="Times,serif" font-size="14.00"> </text>
</g>
<!-- client&#45;with&#45;item&#45;&gt;take&#45;home -->
<g id="edge2" class="edge">
<title>client&#45;with&#45;item&#45;&gt;take&#45;home</title>
<path fill="none" stroke="black" d="M228.4,-177.86C223.29,-165.54 216.23,-148.52 210.35,-134.35"/>
<polygon fill="black" stroke="black" points="213.57,-132.97 206.51,-125.08 207.1,-135.66 213.57,-132.97"/>
<text text-anchor="middle" x="235.11" y="-147" font-family="Times,serif" font-size="14.00">(x, z)</text>
</g>
<!-- vendor&#45;with&#45;item -->
<g id="node3" class="node">
<title>vendor&#45;with&#45;item</title>
<ellipse fill="none" stroke="black" cx="85.34" cy="-18" rx="85.18" ry="18"/>
<text text-anchor="middle" x="85.34" y="-13.8" font-family="Times,serif" font-size="14.00"> &#160;V2 shirt V1 shoes</text>
</g>
<!-- client&#45;with&#45;money -->
<g id="node4" class="node">
<title>client&#45;with&#45;money</title>
<ellipse fill="none" stroke="black" cx="313.34" cy="-18" rx="124.48" ry="18"/>
<text text-anchor="middle" x="313.34" y="-13.8" font-family="Times,serif" font-size="14.00"> &#160;Alice 50&#45;EUR Bob 50&#45;EUR</text>
</g>
<!-- take&#45;home&#45;&gt;vendor&#45;with&#45;item -->
<g id="edge4" class="edge">
<title>take&#45;home&#45;&gt;vendor&#45;with&#45;item</title>
<path fill="none" stroke="black" d="M176.82,-88.65C159.18,-75.22 134.49,-56.43 115.21,-41.74"/>
<polygon fill="black" stroke="black" points="117.12,-38.8 107.04,-35.52 112.88,-44.37 117.12,-38.8"/>
<text text-anchor="middle" x="168.11" y="-58.2" font-family="Times,serif" font-size="14.00">(y, z)</text>
</g>
<!-- take&#45;home&#45;&gt;client&#45;with&#45;money -->
<g id="edge3" class="edge">
<title>take&#45;home&#45;&gt;client&#45;with&#45;money</title>
<path fill="none" stroke="black" d="M221.86,-88.65C239.39,-75.31 263.87,-56.67 283.1,-42.02"/>
<polygon fill="black" stroke="black" points="285.42,-44.66 291.25,-35.82 281.18,-39.09 285.42,-44.66"/>
<text text-anchor="middle" x="283.45" y="-58.2" font-family="Times,serif" font-size="14.00">(x, m)</text>
</g>
</g>
</svg>
