<?xml version="1.0" encoding="UTF-8" standalone="no"?>
<!DOCTYPE svg PUBLIC "-//W3C//DTD SVG 1.1//EN"
 "http://www.w3.org/Graphics/SVG/1.1/DTD/svg11.dtd">
<!-- Generated by graphviz version 5.0.0 (20220707.2145)
 -->
<!-- Title: G Pages: 1 -->
<svg width="142pt" height="222pt"
 viewBox="0.00 0.00 142.01 221.60" xmlns="http://www.w3.org/2000/svg" xmlns:xlink="http://www.w3.org/1999/xlink">
<g id="graph0" class="graph" transform="scale(1 1) rotate(0) translate(4 217.6)">
<title>G</title>
<polygon fill="white" stroke="transparent" points="-4,4 -4,-217.6 138.01,-217.6 138.01,4 -4,4"/>
<!-- vendor&#45;available -->
<g id="node1" class="node">
<title>vendor&#45;available</title>
<ellipse fill="none" stroke="black" cx="29.39" cy="-195.6" rx="27" ry="18"/>
<text text-anchor="middle" x="29.39" y="-191.4" font-family="Times,serif" font-size="14.00"> </text>
</g>
<!-- take&#45;home -->
<g id="node5" class="node">
<title>take&#45;home</title>
<polygon fill="none" stroke="black" points="102.98,-124.8 27.81,-124.8 27.81,-88.8 102.98,-88.8 102.98,-124.8"/>
<text text-anchor="middle" x="65.39" y="-102.6" font-family="Times,serif" font-size="14.00">take&#45;home</text>
</g>
<!-- vendor&#45;available&#45;&gt;take&#45;home -->
<g id="edge1" class="edge">
<title>vendor&#45;available&#45;&gt;take&#45;home</title>
<path fill="none" stroke="black" d="M36.34,-177.86C41.45,-165.54 48.51,-148.52 54.38,-134.35"/>
<polygon fill="black" stroke="black" points="57.63,-135.66 58.23,-125.08 51.16,-132.97 57.63,-135.66"/>
<text text-anchor="middle" x="54.89" y="-147" font-family="Times,serif" font-size="14.00">y</text>
</g>
<!-- client&#45;with&#45;item -->
<g id="node2" class="node">
<title>client&#45;with&#45;item</title>
<ellipse fill="none" stroke="black" cx="101.39" cy="-195.6" rx="27" ry="18"/>
<text text-anchor="middle" x="101.39" y="-191.4" font-family="Times,serif" font-size="14.00"> </text>
</g>
<!-- client&#45;with&#45;item&#45;&gt;take&#45;home -->
<g id="edge2" class="edge">
<title>client&#45;with&#45;item&#45;&gt;take&#45;home</title>
<path fill="none" stroke="black" d="M94.45,-177.86C89.34,-165.54 82.28,-148.52 76.4,-134.35"/>
<polygon fill="black" stroke="black" points="79.62,-132.97 72.56,-125.08 73.16,-135.66 79.62,-132.97"/>
<text text-anchor="middle" x="101.16" y="-147" font-family="Times,serif" font-size="14.00">(x, z)</text>
</g>
<!-- vendor&#45;with&#45;item -->
<g id="node3" class="node">
<title>vendor&#45;with&#45;item</title>
<ellipse fill="none" stroke="black" cx="27.39" cy="-18" rx="27.29" ry="18"/>
<text text-anchor="middle" x="27.39" y="-13.8" font-family="Times,serif" font-size="14.00"> &#160;y z</text>
</g>
<!-- client&#45;with&#45;money -->
<g id="node4" class="node">
<title>client&#45;with&#45;money</title>
<ellipse fill="none" stroke="black" cx="103.39" cy="-18" rx="30.74" ry="18"/>
<text text-anchor="middle" x="103.39" y="-13.8" font-family="Times,serif" font-size="14.00"> &#160;x m</text>
</g>
<!-- take&#45;home&#45;&gt;vendor&#45;with&#45;item -->
<g id="edge4" class="edge">
<title>take&#45;home&#45;&gt;vendor&#45;with&#45;item</title>
<path fill="none" stroke="black" d="M55.71,-88.57C52.72,-82.98 49.51,-76.69 46.86,-70.8 43.21,-62.7 39.66,-53.7 36.61,-45.5"/>
<polygon fill="black" stroke="black" points="39.87,-44.22 33.17,-36.02 33.29,-46.61 39.87,-44.22"/>
<text text-anchor="middle" x="62.16" y="-58.2" font-family="Times,serif" font-size="14.00">(y, z)</text>
</g>
<!-- take&#45;home&#45;&gt;client&#45;with&#45;money -->
<g id="edge3" class="edge">
<title>take&#45;home&#45;&gt;client&#45;with&#45;money</title>
<path fill="none" stroke="black" d="M72.9,-88.65C78.38,-76.13 85.91,-58.93 92.12,-44.76"/>
<polygon fill="black" stroke="black" points="95.36,-46.09 96.16,-35.52 88.94,-43.28 95.36,-46.09"/>
<text text-anchor="middle" x="104.5" y="-58.2" font-family="Times,serif" font-size="14.00">(x, m)</text>
</g>
</g>
</svg>
