<?xml version="1.0" encoding="UTF-8" standalone="no"?>
<!DOCTYPE svg PUBLIC "-//W3C//DTD SVG 1.1//EN"
 "http://www.w3.org/Graphics/SVG/1.1/DTD/svg11.dtd">
<!-- Generated by graphviz version 5.0.0 (20220707.2145)
 -->
<!-- Title: G Pages: 1 -->
<svg width="308pt" height="222pt"
 viewBox="0.00 0.00 307.63 221.60" xmlns="http://www.w3.org/2000/svg" xmlns:xlink="http://www.w3.org/1999/xlink">
<g id="graph0" class="graph" transform="scale(1 1) rotate(0) translate(4 217.6)">
<title>G</title>
<polygon fill="white" stroke="transparent" points="-4,4 -4,-217.6 303.63,-217.6 303.63,4 -4,4"/>
<!-- vendor&#45;available -->
<g id="node1" class="node">
<title>vendor&#45;available</title>
<ellipse fill="none" stroke="red" cx="41.88" cy="-195.6" rx="41.77" ry="18"/>
<text text-anchor="middle" x="41.88" y="-191.4" font-family="Times,serif" font-size="14.00"> &#160;V1 V2</text>
</g>
<!-- take&#45;home -->
<g id="node5" class="node">
<title>take&#45;home</title>
<polygon fill="none" stroke="black" points="158.47,-124.8 83.3,-124.8 83.3,-88.8 158.47,-88.8 158.47,-124.8"/>
<text text-anchor="middle" x="120.88" y="-102.6" font-family="Times,serif" font-size="14.00">take&#45;home</text>
</g>
<!-- vendor&#45;available&#45;&gt;take&#45;home -->
<g id="edge1" class="edge">
<title>vendor&#45;available&#45;&gt;take&#45;home</title>
<path fill="none" stroke="black" d="M56.37,-178.68C68.1,-165.8 84.82,-147.42 98.3,-132.61"/>
<polygon fill="black" stroke="black" points="101.26,-134.56 105.41,-124.81 96.09,-129.85 101.26,-134.56"/>
<text text-anchor="middle" x="92.38" y="-147" font-family="Times,serif" font-size="14.00">y</text>
</g>
<!-- client&#45;with&#45;item -->
<g id="node2" class="node">
<title>client&#45;with&#45;item</title>
<ellipse fill="none" stroke="red" cx="200.88" cy="-195.6" rx="98.99" ry="18"/>
<text text-anchor="middle" x="200.88" y="-191.4" font-family="Times,serif" font-size="14.00"> &#160;Alice shirt Bob shoes</text>
</g>
<!-- client&#45;with&#45;item&#45;&gt;take&#45;home -->
<g id="edge2" class="edge">
<title>client&#45;with&#45;item&#45;&gt;take&#45;home</title>
<path fill="none" stroke="black" d="M185.08,-177.45C173.24,-164.61 156.89,-146.86 143.64,-132.49"/>
<polygon fill="black" stroke="black" points="146.01,-129.89 136.66,-124.91 140.86,-134.64 146.01,-129.89"/>
<text text-anchor="middle" x="183.65" y="-147" font-family="Times,serif" font-size="14.00">(x, z)</text>
</g>
<!-- vendor&#45;with&#45;item -->
<g id="node3" class="node">
<title>vendor&#45;with&#45;item</title>
<ellipse fill="none" stroke="red" cx="84.88" cy="-18" rx="27" ry="18"/>
<text text-anchor="middle" x="84.88" y="-13.8" font-family="Times,serif" font-size="14.00"> </text>
</g>
<!-- client&#45;with&#45;money -->
<g id="node4" class="node">
<title>client&#45;with&#45;money</title>
<ellipse fill="none" stroke="red" cx="156.88" cy="-18" rx="27" ry="18"/>
<text text-anchor="middle" x="156.88" y="-13.8" font-family="Times,serif" font-size="14.00"> </text>
</g>
<!-- take&#45;home&#45;&gt;vendor&#45;with&#45;item -->
<g id="edge4" class="edge">
<title>take&#45;home&#45;&gt;vendor&#45;with&#45;item</title>
<path fill="none" stroke="black" d="M111.08,-88.62C108.08,-83.03 104.9,-76.74 102.35,-70.8 98.92,-62.83 95.71,-53.95 93.01,-45.82"/>
<polygon fill="black" stroke="black" points="96.26,-44.51 89.87,-36.06 89.6,-46.65 96.26,-44.51"/>
<text text-anchor="middle" x="117.65" y="-58.2" font-family="Times,serif" font-size="14.00">(y, z)</text>
</g>
<!-- take&#45;home&#45;&gt;client&#45;with&#45;money -->
<g id="edge3" class="edge">
<title>take&#45;home&#45;&gt;client&#45;with&#45;money</title>
<path fill="none" stroke="black" d="M128,-88.65C133.14,-76.25 140.19,-59.26 146.03,-45.17"/>
<polygon fill="black" stroke="black" points="149.43,-46.1 150.03,-35.52 142.97,-43.42 149.43,-46.1"/>
<text text-anchor="middle" x="159.99" y="-58.2" font-family="Times,serif" font-size="14.00">(x, m)</text>
</g>
</g>
</svg>
